<svg width="24" height="24" viewBox="0 0 24 24" fill="none" xmlns="http://www.w3.org/2000/svg">
<path fill-rule="evenodd" clip-rule="evenodd" d="M9.74623 18.2848C9.33756 18.1948 8.93756 18.0748 8.54623 17.9248C8.16463 17.7816 7.7998 17.5972 7.45823 17.3748C6.86406 16.9978 6.37123 16.4811 6.02277 15.8698C5.67431 15.2585 5.48083 14.5711 5.45923 13.8678C5.41363 12.4512 5.8548 11.0617 6.70923 9.9308C7.25374 9.17211 7.96011 8.54396 8.77723 8.09181C9.60413 7.65435 10.5124 7.39222 11.4452 7.3218C12.6854 7.25008 13.9187 7.55044 14.987 8.18437C16.0553 8.81831 16.9099 9.75691 17.4412 10.8798C17.7581 11.4105 17.9641 11.9999 18.047 12.6125C18.1298 13.225 18.0877 13.8479 17.9232 14.4438C17.7588 15.0396 17.4753 15.5959 17.09 16.0792C16.7047 16.5625 16.2254 16.9628 15.6812 17.2558C15.6361 17.2816 15.5967 17.3162 15.5651 17.3575C15.5336 17.3988 15.5106 17.446 15.4976 17.4963C15.4845 17.5466 15.4817 17.5991 15.4892 17.6505C15.4967 17.7019 15.5144 17.7513 15.5412 17.7958C15.5661 17.8406 15.5997 17.8798 15.6401 17.9113C15.6805 17.9427 15.7269 17.9657 15.7764 17.9787C15.8259 17.9918 15.8775 17.9947 15.9282 17.9874C15.9789 17.98 16.0275 17.9625 16.0712 17.9358C19.2792 16.1758 19.6492 13.0288 18.4402 10.3998C17.8328 9.06266 16.8461 7.9333 15.6026 7.15183C14.3591 6.37036 12.9135 5.97118 11.4452 6.0038C10.32 6.07813 9.2249 6.39868 8.23723 6.9428C7.01575 7.63149 6.01847 8.6574 5.36463 9.89787C4.71078 11.1384 4.42805 12.5409 4.55023 13.9378C4.59792 14.7727 4.84624 15.5837 5.27413 16.3021C5.70203 17.0206 6.29688 17.6252 7.00823 18.0648C7.40823 18.2955 7.82823 18.4821 8.26823 18.6248C8.69156 18.7715 9.12423 18.8848 9.56623 18.9648C9.65897 18.9825 9.75496 18.9631 9.83352 18.9107C9.91209 18.8584 9.96693 18.7772 9.98623 18.6848C10.0024 18.6003 9.98685 18.5128 9.94258 18.439C9.89831 18.3652 9.82841 18.3103 9.74623 18.2848Z" fill="black"/>
<path fill-rule="evenodd" clip-rule="evenodd" d="M11.9049 16.8074C12.3567 16.7182 12.7779 16.5141 13.1279 16.2147C13.4779 15.9154 13.7448 15.5309 13.9029 15.0984C13.9288 15.0534 13.9453 15.0037 13.9512 14.9522C13.9571 14.9006 13.9525 14.8484 13.9375 14.7988C13.9225 14.7491 13.8975 14.7031 13.864 14.6635C13.8306 14.6238 13.7894 14.5915 13.7429 14.5684C13.698 14.5425 13.6482 14.526 13.5967 14.5201C13.5452 14.5142 13.493 14.5188 13.4434 14.5338C13.3937 14.5488 13.3476 14.5738 13.308 14.6073C13.2684 14.6407 13.236 14.6819 13.2129 14.7284C13.0183 15.0254 12.7393 15.2575 12.4118 15.3947C12.0842 15.5319 11.7232 15.568 11.3749 15.4984C11.1693 15.4745 10.9676 15.424 10.7749 15.3484C10.2573 15.1832 9.81028 14.8485 9.50593 14.3984C9.48948 14.3501 9.46236 14.3061 9.42658 14.2696C9.39079 14.2332 9.34728 14.2054 9.29925 14.1881C9.25122 14.1708 9.19991 14.1645 9.14913 14.1698C9.09836 14.175 9.04941 14.1916 9.00593 14.2184C8.92119 14.2557 8.85468 14.325 8.82094 14.4112C8.7872 14.4974 8.789 14.5935 8.82593 14.6784C9.03493 15.4284 9.51593 16.0744 10.1759 16.4884C10.4819 16.6664 10.8219 16.7784 11.1749 16.8174C11.4183 16.8507 11.6616 16.8474 11.9049 16.8074Z" fill="black"/>
<path fill-rule="evenodd" clip-rule="evenodd" d="M23.8861 12.4495C23.8244 12.1841 23.7269 11.9284 23.5961 11.6895C23.3599 11.2698 23.039 10.9038 22.6537 10.615C22.2684 10.3261 21.8272 10.1205 21.3581 10.0115C21.2812 9.42369 21.1609 8.84244 20.9981 8.27246C20.628 6.99391 19.9828 5.81177 19.1076 4.80883C18.2325 3.8059 17.1487 3.00644 15.9321 2.46646C14.6453 1.97994 13.2731 1.76009 11.8987 1.82026C10.5243 1.88043 9.17649 2.21935 7.93713 2.81646C6.66238 3.33794 5.53541 4.16486 4.65548 5.22441C3.77554 6.28396 3.16964 7.54362 2.89113 8.89246C2.89113 9.13246 2.89113 9.37246 2.83113 9.61246C2.32288 9.70731 1.84215 9.91421 1.42389 10.2181C1.00563 10.5221 0.66034 10.9154 0.413129 11.3695C0.282462 11.6095 0.185795 11.8628 0.123129 12.1295C-0.0403918 12.6836 -0.0403918 13.2733 0.123129 13.8275C0.272083 14.2453 0.522788 14.6194 0.852593 14.916C1.1824 15.2127 1.58091 15.4225 2.01213 15.5265C2.21013 15.5891 2.41346 15.6325 2.62213 15.6565C2.8248 15.6765 3.0278 15.6765 3.23113 15.6565C3.32268 15.6533 3.41037 15.6188 3.47953 15.5587C3.5487 15.4986 3.59515 15.4167 3.61113 15.3265C3.65169 15.346 3.69612 15.3561 3.74113 15.3561C3.78614 15.3561 3.83057 15.346 3.87113 15.3265C3.93234 15.2988 3.984 15.2537 4.0196 15.1968C4.05519 15.1398 4.07312 15.0736 4.07113 15.0065C3.83706 14.0219 3.68983 13.0187 3.63113 12.0085C3.57513 11.0215 3.64513 10.0305 3.84113 9.06046C4.15518 7.91048 4.73989 6.85236 5.54641 5.97452C6.35292 5.09668 7.35782 4.42461 8.47713 4.01446C9.56187 3.49483 10.7398 3.1979 11.9412 3.14122C13.1427 3.08454 14.3433 3.26926 15.4721 3.68446C16.5348 4.13199 17.489 4.80262 18.27 5.65093C19.0511 6.49925 19.6407 7.50546 19.9991 8.60146C20.754 10.8839 20.6868 13.3584 19.8091 15.5965C19.7897 15.6443 19.78 15.6956 19.7806 15.7473C19.7811 15.799 19.792 15.85 19.8124 15.8975C19.8329 15.9449 19.8626 15.9878 19.8998 16.0237C19.937 16.0596 19.981 16.0877 20.0291 16.1065C20.0908 16.127 20.1575 16.127 20.2191 16.1065C19.9413 16.6876 19.6064 17.2397 19.2191 17.7545C18.8491 18.2555 18.4171 18.7055 17.9301 19.0945C17.1826 19.7681 16.2181 20.151 15.2121 20.1735C15.1677 20.0928 15.0961 20.0304 15.01 19.9975C14.924 19.9646 14.8291 19.9631 14.7421 19.9935C14.6441 20.0334 14.566 20.1106 14.5247 20.208C14.4835 20.3055 14.4826 20.4153 14.5221 20.5135C14.5221 20.6435 14.5221 20.7335 14.3921 20.8235C14.2321 20.9435 14.0421 21.0205 13.8431 21.0425C13.5639 21.0956 13.276 21.0819 13.0031 21.0025C12.7267 20.9345 12.4679 20.8084 12.2441 20.6325C12.0741 20.5125 11.9441 20.4325 12.0041 20.3125C12.0799 20.1669 12.1986 20.0482 12.3441 19.9725L13.0241 19.7525C13.216 19.7217 13.4098 19.705 13.6041 19.7025H14.2231C14.3118 19.7169 14.4026 19.6957 14.4757 19.6434C14.5488 19.5911 14.5982 19.5121 14.6131 19.4235C14.6218 19.3781 14.6214 19.3316 14.6121 19.2864C14.6027 19.2412 14.5844 19.1983 14.5584 19.1602C14.5324 19.1221 14.4991 19.0895 14.4604 19.0643C14.4218 19.0392 14.3785 19.0219 14.3331 19.0135L13.0031 18.7935C12.8338 18.779 12.6635 18.779 12.4941 18.7935C12.3144 18.8076 12.1367 18.8411 11.9641 18.8935C11.6809 18.9644 11.4204 19.1063 11.2071 19.3057C10.9938 19.5051 10.8348 19.7556 10.7451 20.0335C10.6797 20.3498 10.716 20.6787 10.8489 20.9732C10.9818 21.2676 11.2046 21.5124 11.4851 21.6725C11.8851 21.9365 12.3391 22.1065 12.8141 22.1725C13.2671 22.2175 13.7251 22.1595 14.1531 22.0025C14.5631 21.8475 14.9121 21.5675 15.1531 21.2025C15.1958 21.1091 15.2291 21.0125 15.2531 20.9125C16.2886 21.0504 17.3409 20.8468 18.2501 20.3325C19.0791 19.852 19.7682 19.1632 20.2491 18.3345C20.6855 17.6174 20.9932 16.8295 21.1581 16.0065H21.4381C21.6448 15.9731 21.8481 15.9265 22.0481 15.8665C22.4646 15.7506 22.8467 15.5354 23.1616 15.2393C23.4766 14.9432 23.7149 14.575 23.8561 14.1665C24.037 13.6096 24.0474 13.0123 23.8861 12.4495ZM2.74113 14.8075C2.59803 14.7588 2.4578 14.702 2.32113 14.6375C2.08749 14.5234 1.88255 14.3582 1.72154 14.1541C1.56053 13.95 1.4476 13.7122 1.39113 13.4585C1.32425 13.1288 1.32459 12.789 1.39213 12.4595C1.46179 12.0496 1.61817 11.6593 1.85081 11.3147C2.08345 10.9702 2.38699 10.6793 2.74113 10.4615C2.73113 11.0088 2.75113 11.5548 2.80113 12.0995C2.90113 13.0835 3.08813 14.0575 3.36113 15.0075C3.30113 15.0075 3.26113 14.9375 3.19113 14.9375L2.74113 14.8075ZM21.7281 14.9475C20.2181 15.6775 21.6281 14.0085 21.4581 10.8305C22.0892 11.2909 22.5158 11.9794 22.6471 12.7495C22.7131 13.0795 22.7131 13.4195 22.6471 13.7495C22.5908 14.0099 22.4748 14.2536 22.3082 14.4615C22.1416 14.6694 21.929 14.8358 21.6871 14.9475H21.7281Z" fill="black"/>
<path fill-rule="evenodd" clip-rule="evenodd" d="M8.83707 10.5204C8.65625 10.5159 8.47627 10.5464 8.30707 10.6104C7.92707 10.7604 7.58707 10.9924 7.30707 11.2904C7.22921 11.3398 7.17397 11.4179 7.15338 11.5078C7.13278 11.5976 7.14848 11.692 7.19707 11.7704C7.33707 12.0204 9.19707 11.7704 9.55707 11.7704C9.7164 11.777 9.87274 11.8037 10.0261 11.8504C10.1169 11.9034 10.2247 11.9195 10.327 11.8953C10.4294 11.8711 10.5186 11.8085 10.5761 11.7204C10.6285 11.631 10.6443 11.5248 10.6201 11.4241C10.5958 11.3234 10.5335 11.236 10.4461 11.1804C10.1469 10.8823 9.77435 10.6684 9.36607 10.5604C9.19287 10.5176 9.01473 10.5041 8.83707 10.5204ZM16.0821 11.7694C16.1298 11.6898 16.1439 11.5945 16.1214 11.5045C16.0989 11.4145 16.0416 11.3371 15.9621 11.2894C15.6867 10.9876 15.3441 10.755 14.9621 10.6104C14.7929 10.5464 14.6129 10.5159 14.4321 10.5204C14.2511 10.5104 14.0681 10.5304 13.8931 10.5804C13.4861 10.6904 13.1141 10.9044 12.8131 11.2004C12.7275 11.2577 12.6674 11.3459 12.6452 11.4465C12.6231 11.5471 12.6406 11.6524 12.6941 11.7404C12.7498 11.8305 12.8391 11.8948 12.9422 11.9191C13.0453 11.9435 13.1539 11.926 13.2441 11.8704C13.3967 11.8237 13.5534 11.797 13.7141 11.7904C14.8421 11.7004 15.8721 12.1294 16.0821 11.7694Z" fill="black"/>
</svg>
