<svg width="24" height="24" viewBox="0 0 24 24" fill="none" xmlns="http://www.w3.org/2000/svg">
<g clip-path="url(#clip0_644_231)">
<path d="M6.768 19.8363L5.123 17.7803C5.08414 17.7309 5.03163 17.694 4.972 17.6742C4.91237 17.6543 4.84823 17.6525 4.78754 17.6688C4.72685 17.685 4.67227 17.7188 4.63058 17.7658C4.58889 17.8128 4.56192 17.871 4.553 17.9333C4.54689 17.9755 4.54988 18.0187 4.56178 18.0597C4.57368 18.1008 4.59421 18.1388 4.622 18.1713L5.995 20.4173L6.206 20.7283C5.33875 20.7146 4.49217 20.4613 3.76 19.9963C3.38513 19.7758 3.04676 19.4985 2.757 19.1743C2.49439 18.8775 2.28407 18.5384 2.135 18.1713C1.96012 17.7075 1.90247 17.2076 1.9672 16.7162C2.03192 16.2248 2.217 15.757 2.506 15.3543C2.54982 15.2944 2.56811 15.2196 2.55687 15.1463C2.54562 15.073 2.50575 15.0072 2.446 14.9633C2.41693 14.9404 2.38345 14.9237 2.34767 14.9143C2.31188 14.9049 2.27455 14.9029 2.23798 14.9086C2.2014 14.9142 2.16638 14.9273 2.13508 14.947C2.10377 14.9667 2.07686 14.9927 2.056 15.0233C1.43385 15.6698 1.08046 16.5286 1.06728 17.4257C1.0541 18.3229 1.38212 19.1917 1.985 19.8563C2.33773 20.2642 2.76246 20.6039 3.238 20.8583C3.988 21.2503 4.819 21.4603 5.665 21.4703L3.659 23.5263C3.63134 23.5506 3.60918 23.5807 3.594 23.6143C3.57883 23.6479 3.57098 23.6844 3.57098 23.7213C3.57098 23.7581 3.57883 23.7946 3.594 23.8282C3.60918 23.8618 3.63134 23.8919 3.659 23.9163C3.68422 23.9427 3.71455 23.9638 3.74816 23.9782C3.78176 23.9926 3.81794 24 3.8545 24C3.89106 24 3.92724 23.9926 3.96085 23.9782C3.99446 23.9638 4.02479 23.9427 4.05 23.9163C4.732 23.4363 5.444 22.9643 6.056 22.4333C6.494 22.0679 6.90834 21.6766 7.299 21.2593C7.37985 21.1506 7.42351 21.0187 7.42351 20.8833C7.42351 20.7478 7.37985 20.6159 7.299 20.5073C7.13274 20.2753 6.95554 20.0514 6.768 19.8363ZM17.255 4.11425L18.9 6.17025C18.9531 6.23593 19.0293 6.27877 19.113 6.28993C19.1968 6.30109 19.2816 6.27973 19.35 6.23025C19.4141 6.17591 19.4558 6.09975 19.4671 6.01646C19.4784 5.93318 19.4584 5.84867 19.411 5.77925L18.027 3.53325L17.817 3.22225C18.6845 3.23431 19.5315 3.48778 20.263 3.95425C20.618 4.18125 20.939 4.45825 21.216 4.77625C21.482 5.07025 21.693 5.40925 21.837 5.77925C22.012 6.24297 22.0698 6.74273 22.0053 7.23415C21.9407 7.72558 21.7558 8.19346 21.467 8.59625C21.4303 8.65739 21.4179 8.73012 21.4323 8.79998C21.4467 8.86984 21.4869 8.93171 21.5449 8.97329C21.6028 9.01487 21.6743 9.03312 21.7451 9.0244C21.8159 9.01569 21.8809 8.98065 21.927 8.92625C22.3579 8.4716 22.6653 7.91422 22.8199 7.30717C22.9744 6.70012 22.971 6.06362 22.81 5.45825C22.656 4.95241 22.3924 4.4867 22.038 4.09425C21.6838 3.68753 21.2594 3.3478 20.785 3.09125C20.0372 2.69454 19.2045 2.4849 18.358 2.48025L20.363 0.475251C20.3896 0.450022 20.4108 0.41963 20.4253 0.385932C20.4398 0.352233 20.4473 0.315935 20.4473 0.279252C20.4473 0.242568 20.4398 0.20627 20.4253 0.172571C20.4108 0.138873 20.3896 0.108481 20.363 0.0832515C20.3378 0.0569344 20.3075 0.0359912 20.274 0.0216836C20.2405 0.00737596 20.2044 0 20.168 0C20.1316 0 20.0955 0.00737596 20.062 0.0216836C20.0285 0.0359912 19.9982 0.0569344 19.973 0.0832515C19.2938 0.563476 18.625 1.05826 17.967 1.56725C17.527 1.93592 17.1093 2.32725 16.714 2.74125C16.6349 2.85047 16.5923 2.98188 16.5923 3.11675C16.5923 3.25162 16.6349 3.38304 16.714 3.49225C16.834 3.61225 17.215 4.07425 17.255 4.11425ZM22.59 15.5543C22.5888 15.5125 22.5791 15.4714 22.5616 15.4334C22.544 15.3955 22.519 15.3615 22.488 15.3335C22.457 15.3054 22.4206 15.284 22.3811 15.2704C22.3416 15.2567 22.2997 15.2513 22.258 15.2543C22.216 15.2568 22.1748 15.2676 22.137 15.2861C22.0991 15.3046 22.0653 15.3304 22.0374 15.3619C22.0095 15.3935 21.9882 15.4303 21.9745 15.4702C21.9609 15.51 21.9553 15.5522 21.958 15.5943V19.3543C21.9532 19.4484 21.9293 19.5406 21.888 19.6253C21.6485 19.9648 21.3323 20.243 20.965 20.4373C19.962 21.0393 17.485 22.2623 17.245 22.4433C17.245 21.9813 17.335 21.5203 17.355 21.0493C17.3703 20.7821 17.3703 20.5144 17.355 20.2473C17.371 19.9766 17.371 19.7059 17.355 19.4353C17.355 19.0543 17.285 18.6733 17.235 18.2923C17.305 18.2923 17.907 17.8813 18.037 17.7903L19.712 16.5873L21.717 15.2043C21.717 15.2043 22.148 14.8833 22.279 14.7523C22.3396 14.7011 22.3874 14.6364 22.4187 14.5635C22.4499 14.4906 22.4637 14.4114 22.459 14.3323C22.4365 14.2086 22.3894 14.0908 22.3205 13.9856C22.2516 13.8805 22.1624 13.7903 22.058 13.7203C21.7736 13.5279 21.4755 13.3568 21.166 13.2083L17.686 11.3633C17.6493 11.3419 17.6088 11.3281 17.5667 11.3226C17.5246 11.317 17.4818 11.3199 17.4409 11.3311C17.3999 11.3423 17.3616 11.3615 17.3282 11.3876C17.2947 11.4137 17.2668 11.4462 17.246 11.4833C17.2246 11.5193 17.2106 11.5592 17.2051 11.6008C17.1995 11.6423 17.2024 11.6845 17.2136 11.7249C17.2248 11.7653 17.2441 11.803 17.2703 11.8357C17.2965 11.8684 17.3291 11.8955 17.366 11.9153C17.366 11.9153 21.226 14.0603 21.436 14.2213C21.386 14.2813 19.16 15.7653 19.16 15.7653C19.16 15.7653 16.965 17.1993 17.025 17.1993C17.085 17.1993 16.293 16.8583 16.102 16.7783L13.716 15.9153C13.345 15.7953 12.964 15.6753 12.583 15.5253C12.3453 15.4379 12.1141 15.334 11.891 15.2143L12.332 14.8633C13.0453 14.2469 13.7846 13.6613 14.548 13.1083C14.939 12.8283 15.611 12.3363 16.162 11.9553C16.513 11.7053 16.884 11.4643 17.255 11.2433C17.3173 11.2022 17.3621 11.1394 17.3806 11.0671C17.3991 10.9948 17.39 10.9182 17.355 10.8523C17.3175 10.789 17.2566 10.7431 17.1855 10.7244C17.1144 10.7057 17.0388 10.7157 16.975 10.7523C16.584 10.9623 16.203 11.1923 15.822 11.4343C15.25 11.7843 14.689 12.1553 14.137 12.5063C13.586 12.8573 13.335 13.0383 12.934 13.3093L11.771 14.1713C11.611 14.2913 11.33 14.4513 11.119 14.6113C10.9908 14.7095 10.8765 14.8245 10.779 14.9533C10.7115 15.0408 10.6748 15.1482 10.6748 15.2588C10.6748 15.3693 10.7115 15.4767 10.779 15.5643L10.889 15.6943C10.7982 16.187 10.7212 16.6822 10.658 17.1793C10.598 17.6603 10.538 18.3923 10.528 19.0043C10.5118 19.298 10.5118 19.5925 10.528 19.8863C10.5406 20.0323 10.5886 20.173 10.668 20.2963C10.7567 20.4209 10.8667 20.5216 10.998 20.5983C11.219 20.7483 11.5 20.8483 11.691 20.9583C12.091 21.1593 13.405 21.8713 14.638 22.4933C15.2993 22.8226 15.9682 23.1367 16.644 23.4353C16.911 23.5393 17.208 23.5393 17.476 23.4353C17.8267 23.2686 18.161 23.0749 18.479 22.8543C19.241 22.3933 20.484 21.9213 21.487 21.2703C21.95 20.9823 22.342 20.5903 22.63 20.1273C22.714 19.9659 22.7673 19.7953 22.79 19.6153C22.8044 19.3214 22.8044 19.0271 22.79 18.7333L22.59 15.5543ZM12.01 20.1163C11.85 20.0463 11.64 19.9763 11.449 19.8863L11.299 19.8063C11.2758 19.5291 11.2758 19.2504 11.299 18.9733C11.269 18.3886 11.269 17.8039 11.299 17.2193C11.299 16.8383 11.369 16.4573 11.409 16.0863C11.659 16.2263 11.91 16.3563 12.171 16.4763C12.431 16.5973 12.973 16.7883 13.374 16.9183L15.66 17.7703C15.89 17.8603 16.192 18.0413 16.472 18.1513C16.412 18.5623 16.362 18.9733 16.322 19.3953C16.282 19.8153 16.322 19.9363 16.322 20.2073V21.0193C16.322 21.2893 16.392 21.7813 16.442 22.1523L12.01 20.1163ZM9.064 12.9783C7.994 13.1083 6.914 13.1083 5.845 12.9783C5.20644 12.9774 4.58601 12.7658 4.08 12.3763C4.01056 12.2546 3.9792 12.1149 3.99 11.9753C3.99 11.5943 4.07 11.1833 4.06 10.9123V8.03525C4.06 7.40325 4.06 6.78125 4.15 6.13925L4.321 3.03125C4.321 2.81125 4.321 2.51025 4.411 2.23925C4.425 2.16392 4.445 2.09058 4.471 2.01925C4.65904 1.96028 4.85635 1.93654 5.053 1.94925L7.58 1.64825H11.069C12.272 2.72025 12.633 2.88125 13.074 3.41225C13.15 3.70025 13.19 3.99725 13.194 4.29525V5.90925L13.244 10.9223C13.2466 10.9976 13.2784 11.069 13.3328 11.1212C13.3871 11.1735 13.4596 11.2026 13.535 11.2023C13.6103 11.1999 13.6818 11.1683 13.7343 11.1142C13.7867 11.0601 13.816 10.9876 13.816 10.9123V7.90425C13.816 7.13225 13.866 6.41025 13.896 5.94925C13.926 5.48825 14.016 4.83625 14.016 4.27525C14.0214 3.87729 13.9812 3.48003 13.896 3.09125C13.8475 2.93695 13.7534 2.80097 13.626 2.70125C11.27 0.534251 11.91 1.09525 11.62 0.875252C11.4647 0.759373 11.2815 0.686584 11.089 0.664252C10.8153 0.64546 10.5407 0.64546 10.267 0.664252C9.675 0.644252 9.003 0.584252 8.372 0.574252C8.08117 0.56013 7.78983 0.56013 7.499 0.574252L4.993 0.834252C4.71434 0.837585 4.44034 0.874252 4.171 0.944252C3.951 0.999252 3.757 1.12725 3.619 1.30625C3.5128 1.47973 3.43515 1.66915 3.389 1.86725C3.313 2.22458 3.26967 2.58558 3.259 2.95025L3.137 6.08025V8.08625C3.137 9.08825 3.207 10.0213 3.267 10.9933C3.267 11.3043 3.197 11.8153 3.267 12.2373C3.275 12.4943 3.363 12.7433 3.518 12.9483C4.17579 13.4828 4.99641 13.7767 5.844 13.7813C6.982 13.8733 8.126 13.8293 9.254 13.6513C9.29528 13.6441 9.33468 13.6287 9.36984 13.6059C9.40499 13.5831 9.43516 13.5535 9.45852 13.5187C9.48189 13.4839 9.49796 13.4448 9.50578 13.4036C9.5136 13.3625 9.51299 13.3202 9.504 13.2793C9.50462 13.2264 9.49217 13.1743 9.46774 13.1275C9.44331 13.0807 9.40768 13.0406 9.36401 13.0109C9.32035 12.9812 9.27001 12.9628 9.21749 12.9572C9.16496 12.9517 9.11189 12.9593 9.063 12.9793" fill="black"/>
<path d="M8.49183 4.86522C8.22294 4.82279 7.95182 4.79608 7.67983 4.78522C7.40939 4.76951 7.13826 4.76951 6.86783 4.78522C6.23716 4.86189 5.61216 4.97189 4.99283 5.11522C4.91826 5.12516 4.85016 5.16275 4.802 5.22054C4.75385 5.27832 4.72916 5.35209 4.73283 5.42722C4.73656 5.46407 4.74757 5.49982 4.76522 5.53239C4.78286 5.56495 4.80679 5.59369 4.83563 5.61695C4.86446 5.6402 4.89762 5.6575 4.93319 5.66785C4.96875 5.67819 5.00602 5.68138 5.04283 5.67722C5.75483 5.67722 6.42683 5.79722 7.11783 5.83722H8.33183C8.95516 5.84255 9.57683 5.88289 10.1968 5.95822C10.2369 5.96864 10.2786 5.97093 10.3196 5.96495C10.3606 5.95897 10.3999 5.94484 10.4354 5.9234C10.4708 5.90197 10.5015 5.87365 10.5258 5.84013C10.5501 5.8066 10.5675 5.76855 10.5768 5.72822C10.596 5.64586 10.5829 5.55926 10.5401 5.48632C10.4973 5.41337 10.4281 5.35964 10.3468 5.33622C9.74199 5.13042 9.12168 4.97226 8.49183 4.86522ZM10.6278 8.84622C10.6384 8.80609 10.6408 8.76423 10.6349 8.72315C10.629 8.68207 10.6149 8.64259 10.5934 8.60706C10.572 8.57152 10.5436 8.54066 10.51 8.5163C10.4764 8.49193 10.4383 8.47456 10.3978 8.46522C9.65353 8.20337 8.86983 8.07112 8.08083 8.07422C7.62083 8.08422 7.16283 8.12422 6.70683 8.19422C6.03583 8.30422 5.38383 8.49422 4.70183 8.59522C4.66505 8.59651 4.62889 8.60504 4.59541 8.62032C4.56193 8.63559 4.53179 8.65732 4.50671 8.68425C4.48163 8.71119 4.46211 8.7428 4.44926 8.77728C4.43641 8.81177 4.43049 8.84845 4.43183 8.88522C4.43666 8.95879 4.46933 9.02777 4.5232 9.07811C4.57707 9.12845 4.64809 9.15638 4.72183 9.15622C5.27649 9.19622 5.84816 9.21622 6.43683 9.21622H7.06783C7.36883 9.21622 7.66983 9.21622 7.98083 9.14622C8.71729 9.03204 9.46528 9.01188 10.2068 9.08622C10.25 9.10327 10.2965 9.11039 10.3428 9.10707C10.3891 9.10374 10.4341 9.09006 10.4744 9.06702C10.5147 9.04398 10.5494 9.01218 10.5757 8.97396C10.6021 8.93574 10.6196 8.89209 10.6268 8.84622" fill="black"/>
</g>
<defs>
<clipPath id="clip0_644_231">
<rect width="24" height="24" fill="white"/>
</clipPath>
</defs>
</svg>
