<svg width="24" height="24" viewBox="0 0 24 24" fill="none" xmlns="http://www.w3.org/2000/svg">
<g clip-path="url(#clip0_644_238)">
<path fill-rule="evenodd" clip-rule="evenodd" d="M12.5903 6.89022C12.5903 6.53222 12.5903 5.72422 11.3723 5.79322C10.1553 5.86322 10.3753 7.78822 11.3723 7.78822C12.1703 7.80822 12.5993 7.56822 12.5893 6.89122" fill="black"/>
<path fill-rule="evenodd" clip-rule="evenodd" d="M23.7012 10.123C23.6282 9.52041 23.4255 8.94082 23.107 8.42413C22.7885 7.90744 22.3618 7.46592 21.8562 7.12999C21.3936 6.8814 20.8754 6.75443 20.3502 6.76099C19.8862 6.79099 19.4306 6.86765 18.9832 6.99099C18.4958 6.26574 17.8928 5.62526 17.1982 5.09499C15.8863 4.153 14.3668 3.54074 12.7682 3.30999C11.6107 3.19783 10.4427 3.34458 9.34895 3.73962C8.25516 4.13466 7.26295 4.76808 6.44423 5.59399C6.00696 6.01674 5.61577 6.48469 5.27723 6.98999C4.7454 6.85357 4.20004 6.77676 3.65123 6.76099C3.12599 6.75474 2.60777 6.88205 2.14523 7.13099C1.63993 7.46671 1.21336 7.90791 0.894858 8.42424C0.57636 8.94057 0.373497 9.51977 0.300227 10.122C0.0996544 11.3203 0.379164 12.5493 1.07823 13.543C1.60313 14.1273 2.30297 14.5262 3.07323 14.68C3.79479 14.8762 4.55566 14.8762 5.27723 14.68C5.50656 15.088 5.77589 15.467 6.08523 15.817C6.18523 15.917 6.31523 15.997 6.42523 16.097C5.57618 16.5821 4.81955 17.2135 4.19023 17.962C3.87956 18.324 3.60689 18.713 3.37223 19.129C3.13685 19.5348 2.93356 19.9585 2.76423 20.396C2.38233 21.4026 2.08856 22.4405 1.88623 23.498C1.8611 23.5985 1.87498 23.7049 1.92507 23.7956C1.97516 23.8863 2.05775 23.9547 2.15623 23.987C2.25925 24.0117 2.36781 23.9966 2.46017 23.9447C2.55252 23.8928 2.62184 23.8079 2.65423 23.707C3.01956 22.725 3.44856 21.771 3.94123 20.845C4.26023 20.236 4.59923 19.658 4.93823 19.079C5.49415 18.1261 6.19409 17.2649 7.01323 16.526C7.95084 17.1653 9.07185 17.4803 10.2052 17.423C10.2979 17.4204 10.3857 17.3811 10.4495 17.3138C10.5132 17.2465 10.5476 17.1567 10.5452 17.064C10.5398 16.9704 10.4981 16.8827 10.429 16.8194C10.3599 16.7561 10.2689 16.7222 10.1752 16.725C9.51901 16.7321 8.86888 16.5987 8.26848 16.3338C7.66808 16.0688 7.13131 15.6785 6.69423 15.189C5.80977 14.197 5.2403 12.9645 5.05823 11.648C4.98892 10.6736 5.15899 9.69699 5.5536 8.80336C5.94821 7.90973 6.55539 7.12618 7.32223 6.52099C8.00621 5.84279 8.83035 5.32252 9.73679 4.9967C10.6432 4.67089 11.61 4.54743 12.5692 4.63499C13.954 4.82444 15.2738 5.34103 16.4192 6.14199C17.5489 6.93067 18.3816 8.07533 18.7842 9.39299C19.0489 10.2864 19.0534 11.2368 18.7971 12.1326C18.5408 13.0285 18.0344 13.8327 17.3372 14.451C16.7425 15.0013 16.0703 15.4615 15.3422 15.817C15.2937 15.8291 15.2491 15.8532 15.2122 15.887C14.231 16.3821 13.1649 16.6868 12.0702 16.785C11.9928 16.7913 11.919 16.82 11.8577 16.8677C11.7964 16.9154 11.7503 16.9799 11.7252 17.0534C11.7 17.1269 11.6968 17.2061 11.716 17.2813C11.7352 17.3565 11.7759 17.4246 11.8332 17.477C11.9126 17.5453 12.0157 17.5798 12.1202 17.573C13.2838 17.5012 14.4238 17.2137 15.4822 16.725C16.2156 17.4034 16.8531 18.1785 17.3772 19.029C17.7372 19.608 18.0752 20.187 18.3752 20.795C18.8659 21.723 19.2979 22.6773 19.6712 23.658C19.6993 23.76 19.7666 23.8467 19.8584 23.8991C19.9503 23.9516 20.0591 23.9656 20.1612 23.938C20.261 23.9074 20.3448 23.839 20.3949 23.7475C20.445 23.656 20.4573 23.5485 20.4292 23.448C20.2258 22.392 19.9358 21.3545 19.5622 20.346C19.3989 19.9107 19.2054 19.4873 18.9832 19.079C18.7545 18.6814 18.4872 18.3073 18.1852 17.962C17.6443 17.3451 17.016 16.8107 16.3202 16.376C17.1645 15.9134 17.9207 15.3058 18.5542 14.581C18.6042 14.581 18.6342 14.681 18.7042 14.701C19.4258 14.8972 20.1867 14.8972 20.9082 14.701C21.6786 14.5469 22.3785 14.1477 22.9032 13.563C23.6145 12.567 23.9015 11.3294 23.7012 10.122M3.36223 13.732C2.83223 13.585 2.36223 13.27 2.02523 12.835C1.58806 12.0707 1.44611 11.1728 1.62623 10.311C1.69623 9.87099 1.83123 9.44499 2.02623 9.04399C2.17623 8.65399 2.42723 8.30899 2.75423 8.04699C3.05123 7.84399 3.39423 7.71699 3.75123 7.67699C4.13923 7.63299 4.53123 7.63299 4.91823 7.67699C4.18685 8.9142 3.90497 10.366 4.12023 11.787C4.25523 12.516 4.49323 13.221 4.82823 13.882C4.33447 13.9398 3.83405 13.8886 3.36223 13.732ZM21.9762 12.835C21.6392 13.27 21.1702 13.585 20.6392 13.733C20.1378 13.9119 19.6005 13.9668 19.0732 13.893C19.5618 13.2023 19.8905 12.4115 20.0354 11.5779C20.1804 10.7444 20.1379 9.88908 19.9112 9.07399C19.778 8.58738 19.594 8.11612 19.3622 7.66799C19.6682 7.64265 19.9742 7.64265 20.2802 7.66799C20.6372 7.70799 20.9802 7.83399 21.2772 8.03699C21.6042 8.29899 21.8552 8.64299 22.0062 9.03399C22.1932 9.43599 22.3212 9.86299 22.3852 10.301C22.5646 11.1673 22.4196 12.0694 21.9762 12.835Z" fill="black"/>
<path fill-rule="evenodd" clip-rule="evenodd" d="M4.55045 5.31588C5.64767 3.61193 7.34584 2.38319 9.30745 1.87388C10.2609 1.57019 11.2507 1.39564 12.2505 1.35488C13.2386 1.29248 14.2302 1.39728 15.1835 1.66488C16.1685 1.93488 17.0835 2.41488 17.8665 3.07088C18.6632 3.74299 19.309 4.57584 19.7615 5.51488C19.8033 5.60841 19.8794 5.68233 19.9741 5.7214C20.0688 5.76047 20.1749 5.76172 20.2705 5.72488C20.319 5.70525 20.363 5.67605 20.4 5.63904C20.437 5.60202 20.4661 5.55794 20.4857 5.50942C20.5053 5.4609 20.515 5.40893 20.5141 5.35661C20.5131 5.30429 20.5017 5.25269 20.4805 5.20488C20.051 4.11558 19.3905 3.13233 18.5445 2.32288C17.6922 1.49883 16.6714 0.869372 15.5525 0.477881C14.4691 0.120634 13.3302 -0.0385743 12.1905 0.00788102C11.0626 0.0626865 9.95101 0.299056 8.89845 0.707881C6.74656 1.43411 4.96396 2.97302 3.93145 4.99588C3.91095 5.03722 3.89883 5.08221 3.89578 5.12825C3.89274 5.17429 3.89882 5.22048 3.91369 5.26416C3.92856 5.30784 3.95192 5.34815 3.98243 5.38277C4.01294 5.41739 4.04999 5.44564 4.09145 5.46588C4.13136 5.48621 4.17488 5.49846 4.21953 5.50192C4.26417 5.50538 4.30906 5.49998 4.35162 5.48604C4.39418 5.47211 4.43356 5.4499 4.46751 5.4207C4.50146 5.3915 4.52931 5.35588 4.54945 5.31588M9.42745 13.1459C9.3815 13.139 9.33464 13.1413 9.28959 13.1527C9.24454 13.1641 9.20221 13.1843 9.16507 13.2122C9.12793 13.2402 9.09672 13.2752 9.07326 13.3153C9.04981 13.3554 9.03458 13.3998 9.02845 13.4459C9.02173 13.4912 9.02422 13.5374 9.03579 13.5817C9.04736 13.626 9.06777 13.6676 9.09579 13.7038C9.12381 13.74 9.15886 13.7702 9.19884 13.7926C9.23882 13.8149 9.28291 13.829 9.32845 13.8339C9.93474 14.0453 10.5643 14.183 11.2035 14.2439C11.5721 14.2825 11.9411 14.2825 12.3105 14.2439C12.8685 14.1739 13.3875 14.0339 13.9365 13.9439C13.9884 13.9425 14.0395 13.9307 14.0868 13.9093C14.1341 13.8879 14.1767 13.8572 14.212 13.8191C14.2473 13.781 14.2746 13.7362 14.2924 13.6874C14.3102 13.6386 14.318 13.5868 14.3155 13.5349C14.3126 13.429 14.2678 13.3285 14.1909 13.2556C14.114 13.1826 14.0114 13.1432 13.9055 13.1459C13.4075 13.1459 12.9085 13.0259 12.3805 12.9959C12.4405 12.6269 12.5205 12.2579 12.5505 11.8789C12.5805 11.4999 12.5505 11.0309 12.5505 10.6219C12.5308 10.3291 12.4597 10.042 12.3405 9.77388C12.2257 9.50974 12.0252 9.292 11.7715 9.15588C11.5336 9.03619 11.2696 8.97776 11.0035 8.98588C10.5845 9.03588 10.1055 9.21588 9.81645 9.27588C9.75959 9.28244 9.7051 9.30246 9.65752 9.33429C9.60994 9.36611 9.57063 9.40883 9.54286 9.45889C9.5151 9.50895 9.49967 9.56491 9.49786 9.62213C9.49605 9.67934 9.50791 9.73617 9.53245 9.78788C9.56368 9.85052 9.61347 9.902 9.67504 9.93529C9.7366 9.96858 9.80694 9.98205 9.87645 9.97388H10.8735C10.993 9.98008 11.1079 10.0219 11.2035 10.0939C11.2535 10.2632 11.2801 10.4359 11.2835 10.6119C11.2835 10.8419 11.2835 11.0719 11.3435 11.3109C11.4025 11.5499 11.4325 12.0089 11.4625 12.3079V12.8069L11.0035 12.9769C10.4355 12.9769 9.94645 13.1259 9.42745 13.1459Z" fill="black"/>
</g>
<defs>
<clipPath id="clip0_644_238">
<rect width="24" height="24" fill="white"/>
</clipPath>
</defs>
</svg>
