<svg width="24" height="24" viewBox="0 0 24 24" fill="none" xmlns="http://www.w3.org/2000/svg">
<path fill-rule="evenodd" clip-rule="evenodd" d="M15.3416 1.79776C15.4215 1.73451 15.4921 1.66047 15.5516 1.57776C15.6103 1.49843 15.6636 1.41509 15.7116 1.32776C16.1116 0.487754 16.1316 0.327752 15.9416 0.147751C15.7516 -0.0322501 15.6916 -0.152251 14.8016 0.587754C14.7216 0.651088 14.6483 0.721089 14.5816 0.797756C14.5183 0.877756 14.4616 0.96109 14.4116 1.04776C13.9616 2.04776 14.1416 2.12777 14.2116 2.19777C14.4516 2.40777 15.2616 1.85776 15.3416 1.79776ZM20.2417 4.57778C20.3417 4.53578 20.4383 4.48578 20.5317 4.42778C21.5317 3.86778 21.5317 3.75778 21.4617 3.54778C21.3917 3.33777 21.2517 3.15777 20.1416 3.32777C20.0216 3.34777 19.905 3.37777 19.7916 3.41777C19.6762 3.45905 19.5656 3.5127 19.4616 3.57778C19.4616 3.57778 18.5116 4.26778 18.6616 4.57778C18.6616 4.67778 18.7616 4.89778 19.9216 4.67778C20.0309 4.65346 20.138 4.62001 20.2417 4.57778ZM21.8817 10.4188C21.7781 10.3053 21.6643 10.2015 21.5417 10.1088C21.4205 10.0096 21.2898 9.92255 21.1517 9.84882C21.0217 9.78882 19.8516 9.23882 19.6416 9.61882C19.5716 9.73882 19.4316 9.80882 20.4617 10.8188C20.559 10.9188 20.6657 11.0088 20.7817 11.0888C20.895 11.1775 21.015 11.2575 21.1417 11.3288C22.2517 11.9888 22.4317 11.9888 22.6017 11.7688C22.7717 11.5488 22.7517 11.3788 21.8817 10.4188ZM3.77153 5.59779C3.6705 5.56288 3.56684 5.53613 3.46153 5.51779H3.15153C1.96152 5.60779 2.01152 5.87779 2.00152 5.97779C1.99152 6.07779 2.00152 6.30779 3.00153 6.6778C3.0922 6.71313 3.18553 6.7398 3.28153 6.7578C3.38153 6.77246 3.48153 6.77246 3.58153 6.7578C4.67154 6.6978 4.67154 6.4778 4.69154 6.37779C4.74154 6.07779 3.86154 5.63779 3.77153 5.59779ZM3.23153 11.2088C3.11524 11.2751 3.00774 11.3558 2.91153 11.4488C2.80646 11.5342 2.71536 11.6354 2.64153 11.7488C1.83152 12.8488 2.09152 12.9988 2.18152 13.0788C2.27152 13.1588 2.45153 13.2588 3.45153 12.5888L3.73153 12.3888L3.98154 12.1388C4.69154 11.2888 4.71154 11.1388 4.60154 10.9988C4.49154 10.8588 3.45153 11.0888 3.23153 11.2088ZM13.6116 9.15781C13.2356 9.06611 12.8478 9.03239 12.4616 9.05781V7.7178C12.8296 7.7578 13.1906 7.85281 13.5316 7.99781C13.5689 8.01876 13.61 8.03203 13.6525 8.03683C13.695 8.04163 13.738 8.03785 13.7791 8.02573C13.8201 8.01361 13.8583 7.99339 13.8913 7.96627C13.9244 7.93914 13.9517 7.90566 13.9716 7.86781C13.9922 7.82991 14.0049 7.78825 14.009 7.74531C14.0131 7.70238 14.0085 7.65906 13.9954 7.61796C13.9823 7.57687 13.9611 7.53884 13.9329 7.50616C13.9048 7.47348 13.8703 7.44683 13.8316 7.4278C13.3985 7.2007 12.9273 7.05495 12.4416 6.9978V5.48779C12.45 5.40176 12.4244 5.31584 12.3702 5.24852C12.3159 5.1812 12.2375 5.13785 12.1516 5.12779C12.0661 5.12184 11.9815 5.14842 11.9147 5.20219C11.848 5.25597 11.804 5.33297 11.7916 5.41779C11.7016 5.91779 11.6316 6.4178 11.5416 6.9278C11.2749 6.94133 11.0103 6.98153 10.7516 7.0478C10.5336 7.08516 10.3252 7.16546 10.1385 7.28402C9.95174 7.40259 9.79043 7.55707 9.66391 7.73848C9.53738 7.9199 9.44815 8.12464 9.4014 8.34083C9.35465 8.55701 9.35131 8.78033 9.39157 8.99781C9.41883 9.26531 9.52308 9.51917 9.6917 9.72861C9.86032 9.93805 10.0861 10.0941 10.3416 10.1778C10.6366 10.2828 10.9486 10.3338 11.2616 10.3278V10.8178C11.2616 11.2478 11.3416 11.6778 11.3816 12.0978C10.7544 12.1301 10.1355 11.9427 9.63158 11.5678C9.59797 11.5327 9.55761 11.5048 9.51293 11.4857C9.46824 11.4667 9.42016 11.4568 9.37157 11.4568C9.32299 11.4568 9.2749 11.4667 9.23022 11.4857C9.18554 11.5048 9.14518 11.5327 9.11157 11.5678C9.04317 11.6371 9.00482 11.7305 9.00482 11.8278C9.00482 11.9252 9.04317 12.0186 9.11157 12.0878C9.76226 12.6511 10.5911 12.9663 11.4516 12.9778C11.4516 13.2378 11.5016 13.4978 11.5316 13.7478C11.5316 13.846 11.5706 13.9401 11.64 14.0095C11.7093 14.0789 11.8035 14.1178 11.9016 14.1178C11.9997 14.1178 12.0938 14.0789 12.1632 14.0095C12.2326 13.9401 12.2716 13.846 12.2716 13.7478V12.9978C12.5463 12.9752 12.8163 12.9252 13.0816 12.8478C13.3585 12.79 13.6205 12.6757 13.8512 12.5122C14.082 12.3486 14.2767 12.1393 14.423 11.8973C14.5694 11.6552 14.6643 11.3856 14.7019 11.1053C14.7395 10.825 14.719 10.5399 14.6416 10.2678C14.5868 10.0068 14.462 9.76553 14.2805 9.56999C14.0991 9.37445 13.8678 9.23197 13.6116 9.15781ZM10.4916 8.78781C10.3416 8.17781 10.8016 7.89781 11.3716 7.7878C11.3716 7.95781 11.3016 8.12781 11.2816 8.29781C11.2616 8.46781 11.2816 8.83781 11.2816 9.11781C11.152 9.13278 11.0212 9.13278 10.8916 9.11781C10.7955 9.12369 10.7008 9.0929 10.6265 9.03165C10.5523 8.97039 10.5041 8.88325 10.4916 8.78781ZM12.3416 11.9978L12.4016 10.8278V10.3078H12.4616C12.6749 10.2832 12.8883 10.2832 13.1016 10.3078C13.2716 10.3078 13.4216 10.3878 13.4716 10.5678C13.7416 11.3678 13.1016 11.7978 12.3416 11.9978Z" fill="black"/>
<path fill-rule="evenodd" clip-rule="evenodd" d="M12.0219 2.76741C9.02187 2.76741 6.02185 4.30742 5.12184 6.82743C4.83559 7.55055 4.70034 8.32459 4.72441 9.10193C4.74849 9.87927 4.93138 10.6435 5.26184 11.3475C6.02135 12.6888 7.00179 13.8924 8.16186 14.9075C8.67186 15.4275 9.09187 15.8375 9.11187 16.2475C9.11372 16.3108 9.13861 16.3712 9.18187 16.4175H8.50186C8.41583 16.4091 8.32992 16.4347 8.2626 16.4889C8.19528 16.5432 8.15192 16.6216 8.14186 16.7075C8.14183 16.7704 8.16094 16.8319 8.19666 16.8837C8.23239 16.9355 8.28303 16.9752 8.34186 16.9975C8.30014 17.0118 8.26225 17.0355 8.23106 17.0667C8.19986 17.0979 8.1762 17.1358 8.16186 17.1775C8.05303 17.366 7.99573 17.5798 7.99573 17.7975C7.99573 18.0152 8.05303 18.229 8.16186 18.4175C8.33286 18.6695 8.56286 18.8755 8.83187 19.0175C8.77187 19.3482 8.73853 19.6815 8.73186 20.0175C8.72886 20.3075 8.80087 20.5945 8.94187 20.8475C9.13587 21.1715 9.42587 21.4275 9.77187 21.5775C9.82987 21.6029 9.88987 21.6229 9.95187 21.6375C9.91196 21.9922 9.93567 22.3512 10.0219 22.6975C10.1266 23.0141 10.3088 23.2994 10.5519 23.5276C10.7849 23.7176 11.0539 23.8606 11.3419 23.9476C11.6412 24.0175 11.9526 24.0175 12.2519 23.9476C12.5684 23.8983 12.8611 23.7497 13.0876 23.5232C13.3141 23.2967 13.4627 23.0041 13.5119 22.6875C13.5255 22.6403 13.5296 22.5907 13.5239 22.5419C13.5181 22.493 13.5027 22.4458 13.4785 22.4029C13.4543 22.3601 13.4218 22.3225 13.3829 22.2924C13.344 22.2623 13.2994 22.2402 13.2519 22.2275C13.1579 22.2056 13.0591 22.2203 12.9755 22.2686C12.8919 22.3169 12.8299 22.3952 12.8019 22.4875C12.753 22.5869 12.6796 22.6721 12.5886 22.7351C12.4976 22.7981 12.392 22.8368 12.2819 22.8475C12.1434 22.8547 12.0046 22.8378 11.8719 22.7975C11.662 22.7595 11.4637 22.674 11.2919 22.5475C11.1154 22.4586 10.9693 22.3194 10.8719 22.1475C10.8257 22.0409 10.7889 21.9305 10.7619 21.8175L11.1619 21.8675C11.6952 21.9075 12.2286 21.9075 12.7619 21.8675C13.3674 21.8085 13.9468 21.5912 14.4419 21.2375C14.7526 20.9913 14.9831 20.6584 15.1042 20.2809C15.2252 19.9034 15.2314 19.4985 15.1219 19.1175C15.4052 18.996 15.6657 18.8269 15.8919 18.6175C16.0545 18.4825 16.1702 18.2995 16.2223 18.0947C16.2744 17.8898 16.2602 17.6738 16.1819 17.4775C16.1715 17.4307 16.1516 17.3866 16.1235 17.3478C16.0954 17.309 16.0595 17.2765 16.0183 17.2521C15.9771 17.2277 15.9312 17.2121 15.8837 17.2061C15.8362 17.2002 15.7879 17.204 15.7419 17.2175C15.6946 17.2292 15.65 17.2501 15.6108 17.2791C15.5715 17.3081 15.5384 17.3445 15.5133 17.3864C15.4882 17.4282 15.4717 17.4745 15.4646 17.5228C15.4574 17.571 15.4599 17.6202 15.4719 17.6675C15.5219 17.8675 15.4219 17.8875 15.3019 17.9975C14.9724 18.1964 14.6042 18.3226 14.2219 18.3675C13.4919 18.5005 12.7519 18.5605 12.0119 18.5475C11.5719 18.5735 11.1319 18.5735 10.6919 18.5475C10.5719 18.5475 9.13187 18.4675 8.82187 18.0675C8.76435 17.9894 8.72774 17.8978 8.71549 17.8016C8.70324 17.7053 8.71576 17.6076 8.75187 17.5175C8.77208 17.4607 8.77528 17.3992 8.76107 17.3406C8.74686 17.282 8.71586 17.2288 8.67186 17.1875C9.46787 17.3815 10.2712 17.5348 11.0819 17.6475C11.4706 17.6922 11.8606 17.7155 12.2519 17.7175C12.6459 17.7175 13.0392 17.6975 13.4319 17.6575C14.3554 17.563 15.2648 17.3617 16.1419 17.0575C16.2374 17.0336 16.3195 16.9728 16.3701 16.8884C16.4208 16.804 16.4358 16.703 16.4119 16.6075C16.388 16.512 16.3272 16.4299 16.2428 16.3793C16.1584 16.3287 16.0574 16.3136 15.9619 16.3375C15.7519 16.3375 15.5419 16.3375 15.3319 16.4075C15.5272 15.9728 15.7672 15.5628 16.0519 15.1775C17.1728 13.7721 18.0793 12.2085 18.7419 10.5375C19.1222 9.40862 19.1222 8.18627 18.7419 7.05744C17.7619 4.10742 14.9219 2.74741 12.0219 2.76741ZM12.0219 19.7675C12.8027 19.7426 13.5765 19.6114 14.3219 19.3775C14.3367 19.5706 14.3012 19.7643 14.2188 19.9395C14.1364 20.1148 14.01 20.2657 13.8519 20.3775C13.4745 20.5569 13.0595 20.6426 12.6419 20.6275C12.1619 20.6535 11.6819 20.6535 11.2019 20.6275C10.8648 20.6438 10.5273 20.6067 10.2019 20.5175C10.0226 20.4881 9.86078 20.3929 9.74798 20.2505C9.63518 20.1081 9.57951 19.9288 9.59187 19.7475V19.4175C10.393 19.6584 11.2253 19.7797 12.0619 19.7775L12.0219 19.7675ZM17.7819 10.1875C17.2071 11.7887 16.3911 13.2928 15.3619 14.6475C14.9884 15.1884 14.7047 15.7861 14.5219 16.4175H9.68187C9.72649 16.3633 9.7543 16.2973 9.76187 16.2275C9.60867 15.5198 9.22963 14.8811 8.68186 14.4075C7.62936 13.4302 6.75616 12.2761 6.10185 10.9975C5.84422 10.4042 5.71128 9.76426 5.71128 9.11745C5.71128 8.47064 5.84422 7.83073 6.10185 7.23744C6.97185 5.12742 9.52187 3.99741 12.0319 3.99741C14.5419 3.99741 16.8519 4.99742 17.7419 7.35744C18.0789 8.2698 18.107 9.26757 17.8219 10.1975L17.7819 10.1875ZM7.21185 1.3374C7.23985 1.45073 7.28319 1.5574 7.34185 1.6574C7.39717 1.75593 7.46073 1.8496 7.53186 1.9374C7.53186 1.9374 8.27186 2.80741 8.53186 2.6474C8.79187 2.4874 8.53186 1.4174 8.53186 1.3874C8.50114 1.27922 8.45749 1.17513 8.40186 1.07739C8.3589 0.983661 8.30875 0.893391 8.25186 0.807392C7.55186 -0.0726144 7.40186 -0.0526143 7.25185 0.0473864C7.10185 0.147387 6.89185 0.257388 7.21185 1.3374Z" fill="black"/>
</svg>
