<svg width="24" height="24" viewBox="0 0 24 24" fill="none" xmlns="http://www.w3.org/2000/svg">
<g clip-path="url(#clip0_624_30)">
<path fill-rule="evenodd" clip-rule="evenodd" d="M19.4809 19.0359C19.4809 18.9459 19.4209 18.0799 19.1689 18.0299C18.9178 17.9799 18.8468 18.0299 18.6958 18.3009C18.6038 18.5716 18.5302 18.8466 18.4748 19.1259C17.0058 19.2369 16.4628 19.6289 15.3158 19.6589C14.9138 19.7499 14.9638 20.2529 15.4968 20.2929C16.4538 20.3889 17.4168 20.3889 18.3738 20.2929C18.3738 20.9669 18.3738 21.0779 18.5448 21.37C18.5948 21.433 18.6668 21.476 18.7468 21.49C18.8968 21.55 19.0179 21.49 19.1389 21.3499C19.1989 21.2213 19.2389 21.0869 19.2589 20.9469C19.3482 20.7069 19.4189 20.4623 19.4709 20.2129L22.2569 19.9809C22.7299 19.9809 22.8109 19.3779 22.3069 19.3069C21.3735 19.1423 20.4285 19.0517 19.4809 19.0359Z" fill="black"/>
<path fill-rule="evenodd" clip-rule="evenodd" d="M23.9778 18.1509C23.9778 17.8589 24.0278 17.4259 23.9778 17.0639C23.8268 15.8868 22.8908 15.8668 21.8847 15.8568C21.9114 15.6735 21.9281 15.4892 21.9347 15.3038C21.8457 14.8689 21.6253 14.4717 21.3034 14.166C20.9816 13.8602 20.5736 13.6605 20.1347 13.5938C17.9917 13.0798 16.1106 14.8308 16.4926 16.1488C14.7726 16.6209 14.6526 16.5909 14.4806 16.9029C14.0076 17.9689 14.0076 19.3979 14.0076 22.486C14.1686 24.036 14.6516 23.221 14.6616 23.12V21.2089C14.6616 20.8869 14.8026 19.5289 14.7926 19.5289C14.8196 18.8411 14.9556 18.162 15.1956 17.5169C17.2465 16.9265 19.3977 16.7688 21.5127 17.0539H22.3077C22.4777 17.0539 22.8308 17.0539 22.7598 17.1339C22.6898 17.2149 22.7598 21.2289 22.7598 21.812V22.687C22.7598 23.039 23.5348 23.029 16.0196 22.939C15.1546 22.939 15.1346 22.879 15.0136 22.939C14.9518 22.969 14.9022 23.0194 14.8731 23.0816C14.8439 23.1439 14.8371 23.2143 14.8536 23.281C14.8643 23.3256 14.8843 23.3656 14.9136 23.401C15.0836 23.653 15.0836 23.563 17.6497 23.663C24.2698 23.945 23.5948 24.337 23.8168 21.853C23.9628 20.6239 24.0168 19.3869 23.9768 18.1499M17.1866 16.0168C17.0556 14.8598 20.2947 14.0748 21.0887 15.2728C21.1765 15.443 21.205 15.6376 21.1697 15.8258C19.8397 15.7218 18.4997 15.7858 17.1856 16.0158M10.5475 7.90969C10.0647 7.59808 9.53446 7.36707 8.97749 7.22568C13.0026 5.62565 11.8155 -0.13846 7.64047 0.00254256C2.24837 0.39455 2.35837 5.57565 4.72241 7.04468C5.52743 7.53768 5.28642 6.93367 3.8074 7.97969C1.97536 9.21153 0.697402 11.1107 0.246329 13.2718C-0.0299842 14.2094 -0.0745952 15.2002 0.116326 16.1588C0.20114 16.4401 0.357805 16.6944 0.57087 16.8967C0.783935 17.0989 1.04604 17.2421 1.33134 17.3122C1.61663 17.3823 1.91526 17.3767 2.19778 17.2962C2.48029 17.2156 2.73693 17.0628 2.94238 16.8529C2.9319 18.326 3.09741 19.7951 3.43539 21.2289C3.7474 22.577 4.56241 23.864 5.96044 23.854C8.33448 23.854 8.77749 24.025 9.4105 23.271C10.2126 21.8619 10.7482 20.3171 10.9905 18.7139C11.0605 18.1809 11.1105 17.5869 11.1605 16.8129C11.357 17.0248 11.6043 17.1831 11.8791 17.2729C12.1538 17.3626 12.4468 17.3809 12.7306 17.3259C13.8776 17.1239 14.1186 16.2288 14.1286 15.1228C14.0741 13.736 13.7269 12.3763 13.1097 11.1331C12.4926 9.88999 11.6194 8.79146 10.5475 7.90969ZM7.71047 1.16956C8.06593 1.13993 8.42367 1.18505 8.76064 1.30202C9.09761 1.41899 9.40636 1.60522 9.66701 1.84873C9.92766 2.09223 10.1344 2.38762 10.274 2.71587C10.4136 3.04412 10.4829 3.39796 10.4775 3.75461C9.89577 3.53604 9.37945 3.17256 8.97749 2.69859C8.70749 2.41659 8.52548 1.88358 7.97247 1.69257C7.21746 1.45157 7.04646 2.76859 5.29642 3.52261C4.94642 3.68061 4.57241 3.77861 4.1894 3.81561C4.38041 2.02458 5.95944 1.24957 7.71047 1.16956ZM5.14542 6.37966C4.84001 6.15987 4.59006 5.87188 4.41542 5.53858C4.24079 5.20528 4.14628 4.83584 4.1394 4.45963C5.20727 4.52328 6.2668 4.23716 7.15746 3.64461C7.41221 3.47185 7.64231 3.26529 7.84147 3.0306C8.28248 3.54061 8.83249 3.94662 9.4515 4.21762C9.75684 4.35762 10.0752 4.45496 10.4065 4.50963C9.83351 7.09468 6.32244 7.19568 5.14542 6.37966ZM13.1936 15.9368C13.1484 16.0511 13.0764 16.1528 12.9836 16.2333C12.8908 16.3139 12.78 16.3709 12.6605 16.3995C12.541 16.4282 12.4164 16.4276 12.2972 16.3979C12.1779 16.3682 12.0676 16.3102 11.9755 16.2288C11.5875 15.2106 11.2517 14.1733 10.9695 13.1208C10.9695 13.0408 9.96451 12.5568 9.96451 13.6638C9.96451 14.2368 10.1045 15.5848 10.0745 16.0378C10.0655 17.7048 9.77296 19.3581 9.2095 20.9269C9.04949 21.3899 8.63649 22.697 8.20348 22.697H7.19746C7.40746 20.6919 7.43446 18.6719 7.27746 16.6619C7.27997 16.6155 7.273 16.569 7.25698 16.5254C7.24095 16.4818 7.2162 16.4419 7.18424 16.4082C7.15228 16.3744 7.11378 16.3476 7.0711 16.3292C7.02841 16.3108 6.98242 16.3014 6.93596 16.3014C6.88949 16.3014 6.8435 16.3108 6.80081 16.3292C6.75813 16.3476 6.71963 16.3744 6.68767 16.4082C6.65571 16.4419 6.63096 16.4818 6.61494 16.5254C6.59891 16.569 6.59194 16.6155 6.59445 16.6619C6.18144 20.0619 6.11144 19.9419 6.43345 22.697H5.95944C5.20442 22.697 4.78241 21.742 4.62141 20.9969C3.31339 14.7908 5.01342 12.6268 3.61539 12.8288C3.05238 12.8988 3.20238 13.4218 2.60937 15.3838C2.52449 15.6703 2.41681 15.9495 2.28737 16.2188C2.20427 16.3107 2.09699 16.3774 1.97779 16.4112C1.8586 16.4449 1.7323 16.4445 1.61335 16.4099C0.929342 16.3099 0.929342 15.5848 0.929342 14.9518C0.985882 13.4415 1.43311 11.9716 2.22737 10.6857C3.05055 9.44665 4.22363 8.48035 5.59743 7.90969C6.60574 7.59237 7.68718 7.59237 8.69549 7.90969C9.2025 8.03969 9.68551 8.2497 10.1245 8.5337C10.796 9.07405 11.368 9.72755 11.8145 10.4647C12.4676 11.5026 12.9242 12.6518 13.1616 13.8548C13.2876 14.5508 13.2806 15.2648 13.1416 15.9568L13.1936 15.9368Z" fill="black"/>
<path fill-rule="evenodd" clip-rule="evenodd" d="M6.96636 11.9341C6.98032 12.016 7.02282 12.0903 7.08632 12.1439C7.14983 12.1975 7.23026 12.2269 7.31337 12.2269C7.39648 12.2269 7.4769 12.1975 7.54041 12.1439C7.60392 12.0903 7.64642 12.016 7.66038 11.9341C7.82322 10.6634 7.80301 9.37593 7.60037 8.11099C7.50937 7.70898 7.06636 7.82898 6.98636 8.11099C6.68593 9.36687 6.67909 10.6751 6.96636 11.9341Z" fill="black"/>
</g>
<defs>
<clipPath id="clip0_624_30">
<rect width="24" height="24" fill="white"/>
</clipPath>
</defs>
</svg>
