<svg width="24" height="24" viewBox="0 0 24 24" fill="none" xmlns="http://www.w3.org/2000/svg">
<path d="M13.25 2.65039C19.104 2.65061 23.8496 7.39689 23.8496 13.251C23.8494 19.1049 19.1039 23.8504 13.25 23.8506C8.91939 23.8506 5.19686 21.2528 3.55176 17.5312L12.624 15.1006C12.8263 15.0464 13.1369 14.9666 13.3984 14.8574C13.7035 14.73 14.1578 14.4796 14.4629 13.9512C14.768 13.4227 14.7581 12.9041 14.7158 12.5762C14.6796 12.2951 14.5933 11.9864 14.5391 11.7842L12.1084 2.71191C12.4833 2.67178 12.8644 2.65039 13.25 2.65039ZM11.2598 12.1016L2.71094 14.3906C2.6709 14.0162 2.64943 13.636 2.64941 13.251C2.64941 8.92044 5.24729 5.19788 8.96875 3.55273L11.2598 12.1016Z" fill="#222222"/>
<path d="M10.3814 2.54417C10.1104 1.53284 9.9749 1.02717 9.52156 0.812726C9.06823 0.598281 8.63982 0.792332 7.783 1.18043C6.86208 1.59757 5.98975 2.11973 5.18391 2.73807C3.80346 3.79732 2.64517 5.1181 1.77516 6.625C0.905156 8.1319 0.340473 9.7954 0.113355 11.5205C-0.0192248 12.5276 -0.0352584 13.5441 0.0639498 14.5502C0.156252 15.4863 0.202403 15.9543 0.614787 16.2397C1.02717 16.5251 1.53284 16.3896 2.54417 16.1186L11.1573 13.8107C12.1438 13.5464 12.6371 13.4142 12.8614 13.0257C13.0858 12.6371 12.9536 12.1438 12.6893 11.1573L10.3814 2.54417Z" fill="#222222"/>
</svg>
