<svg width="24" height="24" viewBox="0 0 24 24" fill="none" xmlns="http://www.w3.org/2000/svg">
<g clip-path="url(#clip0_624_56)">
<path fill-rule="evenodd" clip-rule="evenodd" d="M17.233 7.58166C17.1786 7.51259 17.0997 7.46723 17.0126 7.45511C16.9256 7.44299 16.8372 7.46505 16.7661 7.51665C16.6949 7.56826 16.6466 7.64541 16.6311 7.73192C16.6156 7.81842 16.6342 7.90757 16.683 7.98066C17.323 9.03866 15.226 9.59766 14.917 8.48066C14.617 7.71066 15.606 6.79266 16.185 7.14166C16.2498 7.18808 16.3304 7.20683 16.4091 7.19379C16.4878 7.18076 16.5581 7.13701 16.6045 7.07216C16.6509 7.00732 16.6696 6.92669 16.6566 6.84802C16.6436 6.76935 16.5998 6.69907 16.535 6.65266C15.465 5.73466 13.439 7.09266 13.828 8.80966C13.9729 9.19897 14.2357 9.53338 14.5797 9.76631C14.9237 9.99924 15.3317 10.1191 15.747 10.1092C16.1623 10.0993 16.5642 9.96012 16.8967 9.71105C17.2292 9.46199 17.4757 9.11544 17.602 8.71966C17.6231 8.51474 17.6011 8.30768 17.5376 8.11172C17.474 7.91576 17.3703 7.73522 17.233 7.58166ZM14.917 4.26666C15.4555 4.32604 15.9774 4.48903 16.454 4.74666C17.2645 5.21682 17.9516 5.87296 18.4586 6.66095C18.9656 7.44894 19.278 8.34618 19.37 9.27866C19.3739 9.32325 19.3866 9.36662 19.4073 9.4063C19.428 9.44598 19.4563 9.4812 19.4906 9.50994C19.5249 9.53868 19.5646 9.56038 19.6073 9.5738C19.65 9.58722 19.6949 9.5921 19.7395 9.58816C19.7841 9.58422 19.8274 9.57154 19.8671 9.55084C19.9068 9.53014 19.942 9.50182 19.9708 9.46751C19.9995 9.4332 20.0212 9.39356 20.0346 9.35087C20.048 9.30817 20.0529 9.26325 20.049 9.21866C19.969 6.02366 18.851 4.95566 16.973 3.91666C16.1531 3.59094 15.2501 3.53833 14.398 3.76666C14.3424 3.82442 14.3113 3.90148 14.3113 3.98166C14.3113 4.06184 14.3424 4.1389 14.398 4.19666C14.568 4.35666 14.707 4.24666 14.917 4.26666Z" fill="black"/>
<path fill-rule="evenodd" clip-rule="evenodd" d="M15.316 0.851809C16.1964 0.910934 17.0573 1.13838 17.852 1.52181C19.2483 2.33093 20.4058 3.49496 21.207 4.89581C21.9575 6.25517 22.3878 7.76794 22.465 9.31881C22.4697 9.40566 22.5075 9.48741 22.5707 9.54722C22.6338 9.60704 22.7175 9.64038 22.8045 9.64038C22.8915 9.64038 22.9752 9.60704 23.0383 9.54722C23.1015 9.48741 23.1393 9.40566 23.144 9.31881C23.1884 7.63008 22.8467 5.9535 22.145 4.41681C21.147 2.35981 20.148 1.80981 18.341 0.721809C17.532 0.232809 15.036 0.032809 14.727 0.371809C14.6983 0.399764 14.6754 0.433193 14.6599 0.47012C14.6443 0.507048 14.6362 0.546725 14.6362 0.586809C14.6362 0.626893 14.6443 0.66657 14.6599 0.703498C14.6754 0.740425 14.6983 0.773854 14.727 0.801809C14.877 0.971809 14.977 0.831809 15.316 0.851809Z" fill="black"/>
<path fill-rule="evenodd" clip-rule="evenodd" d="M9.086 10.0183C9.086 9.29827 9.266 7.74127 8.356 7.27227C7.89061 7.11027 7.40177 7.02582 6.909 7.02227C6.649 7.02227 6.699 7.18227 6.689 6.54327C6.67256 6.07776 6.48362 5.63498 6.1589 5.30102C5.83417 4.96705 5.39687 4.76576 4.932 4.73627H4.592C4.74 4.20743 4.74 3.64811 4.592 3.11927C4.56158 2.87719 4.51852 2.63686 4.463 2.39927C4.393 2.03027 4.203 2.03027 4.113 2.03027C3.704 2.03027 3.455 3.80827 3.684 4.69627C1.448 4.80627 1.997 6.68327 1.997 7.33227C1.517 7.33227 0.809 7.26227 0.469 7.62227C0.13 7.98027 0.19 8.64027 0.15 9.01927C0 10.3473 0 16.5673 0 20.2923C0 21.3603 0.19 22.4583 0.14 23.4973C0.144419 23.5737 0.177898 23.6456 0.23358 23.6981C0.289262 23.7507 0.362932 23.78 0.4395 23.78C0.516068 23.78 0.589738 23.7507 0.64542 23.6981C0.701102 23.6456 0.734581 23.5737 0.739 23.4973C0.829 22.4183 0.689 21.3203 0.739 20.2523C0.739 18.2553 0.889 14.1423 1.069 12.1343C1.069 12.0543 1.408 8.42027 1.358 8.34027C8.896 8.40027 7.788 7.26227 7.988 10.1383C8.297 13.8323 8.248 14.5213 8.537 22.6083C8.537 22.6083 8.487 22.7883 8.537 22.8183C8.51443 22.8635 8.50192 22.913 8.50031 22.9635C8.49871 23.014 8.50806 23.0643 8.52771 23.1108C8.54737 23.1573 8.57686 23.1991 8.61418 23.2331C8.65149 23.2672 8.69573 23.2928 8.74387 23.3081C8.792 23.3234 8.84289 23.3282 8.89303 23.322C8.94317 23.3158 8.99137 23.2988 9.03433 23.2722C9.07729 23.2456 9.11398 23.2101 9.14189 23.168C9.1698 23.1259 9.18826 23.0782 9.196 23.0283C9.276 22.9983 9.326 14.3213 9.086 10.0183ZM2.676 7.29227C2.876 6.18427 2.676 5.92427 3.534 5.82427C3.96882 5.77889 4.40718 5.77889 4.842 5.82427C5.432 5.82427 5.741 6.04427 5.901 7.00327C4.83224 7.15993 3.75556 7.25674 2.676 7.29327M16.914 15.0103C16.9409 14.6565 16.8456 14.3042 16.644 14.0123C16.294 13.6723 15.815 13.8323 15.406 13.7823C14.3733 13.73 13.3381 13.7634 12.311 13.8823C11.6902 13.8433 11.067 13.8769 10.454 13.9823C10.094 14.0923 10.254 14.5913 10.594 14.5613C11.1673 14.5593 11.7397 14.5926 12.311 14.6613C12.92 14.6613 13.519 14.6613 14.118 14.7313C14.498 14.7313 15.595 14.8213 15.795 14.8213C15.795 15.2203 15.735 14.2413 16.205 22.5883C16.2195 22.6691 16.2619 22.7422 16.3249 22.7949C16.3879 22.8476 16.4674 22.8765 16.5495 22.8765C16.6316 22.8765 16.7111 22.8476 16.7741 22.7949C16.8371 22.7422 16.8795 22.6691 16.894 22.5883C17.049 20.0653 17.055 17.5343 16.914 15.0103ZM23.962 17.0773C23.962 16.7873 24.122 16.1383 23.782 15.7893C23.442 15.4403 22.604 15.5593 22.195 15.5093C20.787 15.3593 19.34 15.8193 17.922 15.7593C17.8827 15.7547 17.8428 15.7579 17.8047 15.7687C17.7666 15.7795 17.731 15.7977 17.7 15.8222C17.6689 15.8468 17.643 15.8772 17.6237 15.9118C17.6044 15.9464 17.5921 15.9844 17.5875 16.0238C17.5829 16.0631 17.5861 16.103 17.5969 16.1411C17.6077 16.1791 17.6259 16.2147 17.6505 16.2458C17.675 16.2769 17.7055 16.3028 17.7401 16.3221C17.7746 16.3414 17.8127 16.3537 17.852 16.3583C18.98 16.5383 20.128 16.3583 21.257 16.4983C21.8035 16.5631 22.3546 16.5799 22.904 16.5483C22.904 16.7783 22.844 17.6163 22.904 17.8163C22.964 18.0163 23.064 22.6983 23.154 22.9083C23.244 23.1183 23.783 23.2183 23.823 22.6983C23.823 22.5883 23.823 22.6183 23.893 20.4223C23.9817 19.3083 24.004 18.1933 23.962 17.0773ZM13.978 20.0023C13.3943 19.8015 12.7697 19.7499 12.161 19.8523C10.993 20.1723 11.262 20.1023 11.163 20.1923C11.063 20.2823 11.023 20.5723 11.423 20.7113C11.562 20.7613 12.071 20.8713 12.171 20.8913C12.7839 20.971 13.4071 20.9025 13.988 20.6913C14.0686 20.6756 14.1412 20.6321 14.193 20.5684C14.2448 20.5047 14.2726 20.4247 14.2714 20.3426C14.2702 20.2605 14.2401 20.1814 14.1865 20.1191C14.1329 20.0569 14.0591 20.0156 13.978 20.0023ZM20.588 21.0003C20.2003 20.9739 19.8122 21.0461 19.46 21.2103C19.36 21.2103 19.19 21.6103 19.65 21.8003C20.368 22.0893 21.646 22.0693 21.646 21.5103C21.676 21.2003 21.017 21.0003 20.588 21.0003Z" fill="#020202"/>
<path fill-rule="evenodd" clip-rule="evenodd" d="M21.277 18.3646C21.277 18.1046 20.617 17.8546 20.188 17.8546C19.8003 17.8282 19.4122 17.9004 19.06 18.0646C18.96 18.0646 18.79 18.4646 19.25 18.6546C19.969 19.0036 21.287 18.9236 21.277 18.3646ZM14.248 16.5476C13.8569 16.5235 13.4659 16.5956 13.109 16.7576C13.019 16.7576 12.839 17.1566 13.299 17.3456C14.028 17.6456 15.296 17.6156 15.296 17.0556C15.336 16.7966 14.666 16.5476 14.248 16.5476ZM12.45 17.0566C12.45 16.7966 11.792 16.5466 11.362 16.5466C10.9743 16.5202 10.5862 16.5924 10.234 16.7566C10.134 16.7566 9.96402 17.1566 10.424 17.3466C11.143 17.6456 12.46 17.6156 12.45 17.0566ZM6.20002 19.2126C5.80924 19.1887 5.41855 19.2608 5.06202 19.4226C4.97202 19.4226 4.79202 19.8226 5.25202 20.0126C5.98102 20.3016 7.24902 20.2816 7.24902 19.7226C7.28902 19.4626 6.62902 19.2126 6.20002 19.2126ZM2.99502 19.2126C2.60732 19.1862 2.21924 19.2584 1.86702 19.4226C1.76702 19.4226 1.59702 19.8226 2.05702 20.0126C2.77602 20.3016 4.05402 20.2816 4.05402 19.7226C4.11402 19.4626 3.45402 19.2126 2.99502 19.2126ZM6.20002 14.7496C5.80507 14.7413 5.41418 14.8306 5.06202 15.0096C4.97202 15.0096 4.79202 15.4096 5.25202 15.5986C5.98102 15.8886 7.24902 15.8586 7.24902 15.3086C7.28902 15.0096 6.62902 14.7496 6.20002 14.7496ZM2.99502 14.7496C2.61311 14.7437 2.23575 14.8331 1.89702 15.0096C1.79702 15.0096 1.62702 15.4096 2.08702 15.5986C2.80602 15.8886 4.08402 15.8586 4.08402 15.3086C4.11402 15.0096 3.45402 14.7496 2.99502 14.7496ZM6.20002 10.2866C5.80924 10.2627 5.41855 10.3348 5.06202 10.4966C4.97202 10.4966 4.79202 10.8966 5.25202 11.0766C5.98102 11.3756 7.24902 11.3456 7.24902 10.7966C7.28902 10.5266 6.62902 10.2866 6.20002 10.2866ZM2.99502 10.2866C2.60732 10.2602 2.21924 10.3324 1.86702 10.4966C1.76702 10.4966 1.59702 10.8966 2.05702 11.0766C2.77602 11.3756 4.05402 11.3456 4.05402 10.7966C4.11402 10.5266 3.45402 10.2866 2.99502 10.2866Z" fill="#020202"/>
</g>
<defs>
<clipPath id="clip0_624_56">
<rect width="24" height="24" fill="white"/>
</clipPath>
</defs>
</svg>
