<svg width="24" height="24" viewBox="0 0 24 24" fill="none" xmlns="http://www.w3.org/2000/svg">
<path fill-rule="evenodd" clip-rule="evenodd" d="M15.092 8.55151C14.2593 8.14929 13.3239 8.00979 12.41 8.15151V5.92947C13.05 5.94247 13.682 6.06447 14.281 6.28948C14.3514 6.31967 14.4308 6.32085 14.5019 6.29275C14.5731 6.26465 14.6303 6.20956 14.661 6.13947C14.6757 6.10404 14.6832 6.06605 14.6831 6.02771C14.6829 5.98936 14.6752 5.95142 14.6603 5.91608C14.6455 5.88074 14.6237 5.8487 14.5964 5.82182C14.569 5.79494 14.5366 5.77375 14.501 5.75947C13.8366 5.46278 13.1257 5.28346 12.4 5.22946V3.93844C12.4 3.86153 12.3695 3.78776 12.3151 3.73338C12.2607 3.67899 12.1869 3.64844 12.11 3.64844C12.0331 3.64844 11.9594 3.67899 11.905 3.73338C11.8506 3.78776 11.82 3.86153 11.82 3.93844C11.77 4.36845 11.71 4.79845 11.66 5.22846C10.9437 5.27176 10.2522 5.50698 9.65801 5.90947C9.26504 6.1773 8.92583 6.51651 8.658 6.90949C8.49781 7.15856 8.43713 7.45876 8.488 7.7505C8.55912 8.09299 8.72691 8.40792 8.97149 8.658C9.21606 8.90807 9.52719 9.08281 9.86801 9.16152C10.313 9.27452 10.772 9.31752 11.229 9.29152V9.57153C11.229 10.1415 11.229 10.7115 11.159 11.2826C11.089 11.8526 11.159 12.2826 11.159 12.7136H10.839C10.445 12.7021 10.0531 12.6519 9.66901 12.5636C9.45901 12.5136 9.24901 12.4636 9.18901 12.3236C9.16299 12.2641 9.12002 12.2137 9.06548 12.1785C9.01094 12.1434 8.94724 12.1251 8.88235 12.1259C8.81747 12.1268 8.75427 12.1467 8.70067 12.1833C8.64707 12.2199 8.60545 12.2715 8.581 12.3316C8.56505 12.3719 8.55744 12.415 8.55864 12.4583C8.55985 12.5016 8.56984 12.5442 8.588 12.5836C8.65431 12.7179 8.74688 12.8375 8.86025 12.9355C8.97362 13.0334 9.10547 13.1075 9.24801 13.1536C9.74203 13.3255 10.257 13.4298 10.779 13.4636H11.089V15.2646C11.0863 15.3088 11.0925 15.353 11.1073 15.3947C11.122 15.4364 11.145 15.4748 11.1749 15.5074C11.2047 15.5401 11.2408 15.5664 11.2811 15.5848C11.3213 15.6032 11.3648 15.6134 11.409 15.6146C11.4958 15.6148 11.5794 15.5817 11.6426 15.5222C11.7059 15.4627 11.7439 15.3813 11.749 15.2946L11.929 13.4346C12.782 13.3642 13.6106 13.1152 14.361 12.7036C14.782 12.4819 15.1374 12.1536 15.3919 11.7516C15.6463 11.3496 15.7908 10.8879 15.8111 10.4125C15.8585 10.0667 15.8174 9.71455 15.6914 9.38903C15.5655 9.0635 15.3589 8.77531 15.091 8.55151M10.188 8.14151C10.0137 8.11029 9.8521 8.02943 9.72261 7.90863C9.59312 7.78783 9.50124 7.63223 9.45801 7.46049C9.45801 7.33049 9.53801 7.22049 9.63801 7.10049C9.80801 6.90715 9.99468 6.73048 10.198 6.57048C10.6048 6.25313 11.0813 6.03717 11.588 5.94047C11.508 6.58048 11.428 7.22049 11.368 7.8705V8.20051C10.9639 8.23909 10.5563 8.21888 10.158 8.1405L10.188 8.14151ZM13.93 11.9336C13.3698 12.2846 12.743 12.5161 12.089 12.6136C12.089 12.1936 12.179 11.7736 12.209 11.3436C12.239 10.9135 12.309 10.2125 12.349 9.64153V9.25152H13.229C14.079 9.25152 14.83 9.37152 14.83 10.4515C14.8148 10.7575 14.7213 11.0544 14.5585 11.3139C14.3956 11.5734 14.1689 11.7868 13.9 11.9336H13.93ZM22.0961 21.0887C21.991 20.5971 21.7641 20.1397 21.4361 19.7587C21.0251 19.2677 20.4851 18.8777 20.0241 18.4267L19.1441 17.5466C18.2541 16.7166 17.7941 17.1366 18.3941 17.8266C18.7541 18.2067 19.0841 18.6167 19.3941 18.9967C19.7041 19.3767 20.2841 19.8577 20.6541 20.3477C20.8581 20.6177 20.9921 20.9347 21.0451 21.2677C21.0615 21.5573 20.9876 21.8449 20.8336 22.0907C20.6795 22.3364 20.4529 22.5283 20.1851 22.6397C19.9418 22.8083 19.6561 22.9052 19.3605 22.9193C19.0649 22.9335 18.7713 22.8643 18.5131 22.7197C18.2976 22.5532 18.1059 22.358 17.9431 22.1397C17.6737 21.7438 17.433 21.3291 17.2231 20.8987C16.8631 20.2187 16.5031 19.5377 16.2231 18.8267C16.2272 18.7935 16.2272 18.7599 16.2231 18.7267C15.7221 17.9267 15.342 18.2267 15.6021 19.0067C15.6021 19.1567 15.6921 19.3067 15.7521 19.4567C15.9787 20.078 16.2287 20.6887 16.5021 21.2887C16.6947 21.7754 16.9214 22.2454 17.1821 22.6987C17.3871 23.0347 17.6481 23.3327 17.9531 23.5797C18.3781 23.854 18.8732 23.9999 19.3791 23.9999C19.8849 23.9999 20.38 23.854 20.8051 23.5797C21.2512 23.3488 21.6148 22.9853 21.8458 22.5392C22.0769 22.0931 22.1639 21.5863 22.0951 21.0887" fill="black"/>
<path fill-rule="evenodd" clip-rule="evenodd" d="M15.7821 17.677C15.8154 17.6322 15.8334 17.5779 15.8334 17.522C15.8334 17.4662 15.8154 17.4119 15.7821 17.367C15.7626 17.334 15.7367 17.3053 15.7059 17.2824C15.6752 17.2594 15.6402 17.2429 15.603 17.2336C15.5658 17.2243 15.5271 17.2224 15.4892 17.2282C15.4513 17.2339 15.4149 17.2471 15.3821 17.267C15.0691 17.446 14.7321 17.577 14.3821 17.657C13.8174 17.7857 13.2468 17.869 12.6701 17.907C11.198 18.0357 9.71497 17.8691 8.30807 17.417C6.91885 16.9853 5.67583 16.1783 4.71605 15.085C3.88762 14.065 3.33782 12.8476 3.12032 11.5516C2.90281 10.2557 3.02503 8.92549 3.47504 7.69089C3.86813 6.44072 4.52046 5.28751 5.38943 4.30653C6.2584 3.32555 7.32447 2.53886 8.51807 1.9978C9.25219 1.68393 10.0165 1.44602 10.7991 1.28779C11.55 1.11716 12.3227 1.06319 13.0901 1.12779C15.1881 1.4158 17.0901 2.51081 18.3931 4.17884C19.7283 5.85286 20.4553 7.93068 20.4551 10.0719C20.4432 10.9048 20.3393 11.7339 20.1451 12.544C19.9592 13.3424 19.6191 14.0968 19.1441 14.765C18.6888 15.2857 18.1951 15.766 17.6631 16.206C17.3351 16.5 16.9591 16.736 16.5531 16.906C16.4697 16.9314 16.3998 16.9888 16.3586 17.0657C16.3173 17.1425 16.3082 17.2325 16.3331 17.316C16.3448 17.3546 16.3641 17.3904 16.3898 17.4213C16.4156 17.4522 16.4473 17.4776 16.4831 17.496C17.6148 16.8044 18.6977 16.0359 19.7241 15.196C20.2657 14.4602 20.6534 13.6229 20.8642 12.734C21.0992 11.869 21.2302 10.9789 21.2552 10.0819C21.3097 7.7357 20.5535 5.44244 19.1141 3.58883C17.7036 1.68749 15.6007 0.418493 13.2611 0.0567755C12.3701 -0.0461121 11.4686 -0.00899625 10.5891 0.166777C9.73208 0.33978 8.89407 0.597784 8.08807 0.936789C6.74365 1.54423 5.5451 2.43286 4.57321 3.54276C3.60132 4.65266 2.87869 5.95804 2.45403 7.37088C1.9744 8.77348 1.87262 10.2777 2.15894 11.7321C2.44526 13.1865 3.10957 14.5399 4.08504 15.656C5.16299 16.841 6.54881 17.7034 8.08807 18.147C9.60008 18.5851 11.1851 18.7211 12.7501 18.5471C13.3572 18.4929 13.9593 18.3926 14.5511 18.247C14.9798 18.097 15.3908 17.907 15.7821 17.677Z" fill="black"/>
</svg>
