<svg width="24" height="24" viewBox="0 0 24 24" fill="none" xmlns="http://www.w3.org/2000/svg">
<g clip-path="url(#clip0_650_264)">
<path fill-rule="evenodd" clip-rule="evenodd" d="M23.7991 9.98479C23.6715 9.6412 23.4276 9.35312 23.1098 9.17048C22.792 8.98783 22.4203 8.92214 22.0591 8.98479C21.622 9.11126 21.2433 9.38735 20.9891 9.76479C20.8848 9.92092 20.8071 10.0933 20.7591 10.2748H20.5891C20.4864 10.2587 20.3818 10.2587 20.2791 10.2748C20.1763 10.2602 20.072 10.2602 19.9691 10.2748C19.9191 10.2748 19.8891 10.2748 19.8491 10.3248C19.7791 10.0948 19.7291 9.85479 19.6491 9.62479C19.3622 8.84016 18.9391 8.11233 18.3991 7.47479C17.8654 6.8839 17.253 6.3691 16.5791 5.94479C16.6611 5.86612 16.7378 5.78279 16.8091 5.69479C16.8826 5.61822 16.9433 5.53046 16.9891 5.43479C17.0022 5.35197 17.0022 5.26761 16.9891 5.18479C16.9992 5.09173 16.9992 4.99785 16.9891 4.90479C17.1425 4.91946 17.2958 4.91946 17.4491 4.90479C17.7951 4.79939 18.0952 4.57988 18.3004 4.28204C18.5056 3.98421 18.6039 3.62563 18.5791 3.26479C18.5949 2.93943 18.5064 2.61752 18.3266 2.34593C18.1467 2.07434 17.8849 1.86725 17.5791 1.75479C17.4876 1.71899 17.3857 1.721 17.2957 1.76038C17.2056 1.79976 17.1349 1.87329 17.0991 1.96479C17.0633 2.05629 17.0653 2.15827 17.1047 2.24828C17.1441 2.3383 17.2176 2.40899 17.3091 2.44479C17.4026 2.50779 17.4772 2.59508 17.5247 2.69728C17.5723 2.79947 17.5911 2.9127 17.5791 3.02479C17.5791 3.31479 17.4991 3.66479 17.2391 3.68479C17.1157 3.70341 16.9897 3.69614 16.8692 3.66343C16.7486 3.63072 16.6363 3.57329 16.5391 3.49479C16.389 3.39597 16.2736 3.25259 16.2091 3.08479C16.1711 2.93756 16.1876 2.78155 16.2556 2.64554C16.3237 2.50954 16.4386 2.40272 16.5791 2.34479C16.6589 2.31535 16.7241 2.25629 16.7614 2.17991C16.7987 2.10354 16.805 2.01574 16.7791 1.93479C16.7517 1.85324 16.6934 1.78565 16.6168 1.74642C16.5403 1.70719 16.4514 1.69943 16.3691 1.72479C16.1546 1.76313 15.9517 1.85001 15.7758 1.97878C15.6 2.10755 15.4559 2.27481 15.3546 2.46778C15.2533 2.66075 15.1974 2.87432 15.1913 3.09218C15.1851 3.31004 15.2289 3.52642 15.3191 3.72479C15.4581 4.08279 15.7071 4.38779 16.0291 4.59479C15.9745 4.63619 15.9242 4.6831 15.8791 4.73479C15.8298 4.80106 15.7925 4.87554 15.7691 4.95479C15.7304 5.03303 15.7067 5.11782 15.6991 5.20479V5.38479C14.7884 4.9297 13.8084 4.62895 12.7991 4.49479C10.8878 4.24098 8.95015 4.7041 7.36014 5.79479C7.34799 5.61294 7.32124 5.43236 7.28014 5.25479C7.23348 5.13812 7.18014 5.02479 7.12014 4.91479C7.05598 4.81403 6.98585 4.71719 6.91014 4.62479C6.83164 4.53032 6.74461 4.44329 6.65014 4.36479H6.72014C6.94908 4.08179 7.07398 3.7288 7.07398 3.36479C7.07398 3.00078 6.94908 2.64779 6.72014 2.36479C6.5543 2.08794 6.30617 1.86976 6.01039 1.74069C5.7146 1.61162 5.3859 1.5781 5.07014 1.64479C4.97483 1.6663 4.8919 1.72464 4.83944 1.80707C4.78698 1.8895 4.76926 1.98934 4.79014 2.08479C4.79954 2.13265 4.81857 2.1781 4.84607 2.21838C4.87357 2.25866 4.90897 2.29293 4.95012 2.31912C4.99126 2.3453 5.0373 2.36285 5.08544 2.3707C5.13358 2.37856 5.18281 2.37654 5.23014 2.36479C5.34156 2.37119 5.44953 2.40573 5.54397 2.46519C5.6384 2.52465 5.71622 2.60709 5.77014 2.70479C5.94014 2.94479 6.06014 3.28479 5.85014 3.44479C5.75817 3.53009 5.64902 3.59474 5.53002 3.63441C5.41101 3.67408 5.2849 3.68785 5.16014 3.67479C4.9847 3.67037 4.81438 3.61476 4.67014 3.51479C4.55212 3.41694 4.47526 3.27824 4.45488 3.12629C4.4345 2.97434 4.47208 2.82028 4.56014 2.69479C4.59219 2.65208 4.6134 2.60224 4.62194 2.54953C4.63049 2.49682 4.62611 2.44283 4.6092 2.39218C4.59229 2.34154 4.56333 2.29575 4.52483 2.25876C4.48633 2.22177 4.43942 2.19467 4.38814 2.17979C4.32675 2.16321 4.26182 2.16529 4.20161 2.18577C4.14141 2.20625 4.08868 2.24421 4.05014 2.29479C3.8901 2.44429 3.76681 2.62879 3.68991 2.83385C3.61301 3.03892 3.58459 3.25899 3.60686 3.47686C3.62913 3.69473 3.7015 3.9045 3.8183 4.08976C3.9351 4.27502 4.09316 4.43076 4.28014 4.54479C4.63514 4.80479 5.07214 4.92879 5.51014 4.89479C5.59014 4.89479 5.66014 4.89479 5.74014 4.83479C5.76754 4.9705 5.80429 5.10416 5.85014 5.23479C5.89214 5.33412 5.93881 5.43079 5.99014 5.52479C6.04214 5.63146 6.10881 5.72812 6.19014 5.81479C6.34014 5.99479 6.50014 6.13479 6.66014 6.29479C6.27928 6.63406 5.94324 7.02051 5.66014 7.44479C5.36656 7.93573 5.11564 8.45095 4.91014 8.98479C4.89307 9.02353 4.8838 9.06525 4.88285 9.10758C4.8819 9.1499 4.8893 9.192 4.90462 9.23146C4.91994 9.27093 4.94289 9.30699 4.97215 9.33759C5.00141 9.36818 5.0364 9.39272 5.07514 9.40979C5.15338 9.44427 5.24211 9.44625 5.32182 9.41531C5.40152 9.38437 5.46567 9.32303 5.50014 9.24479C6.06736 7.87308 7.1007 6.74571 8.41795 6.06148C9.73519 5.37724 11.2517 5.18009 12.7001 5.50479C14.5817 5.79412 16.2924 6.76154 17.5101 8.22479C19.7301 10.9548 19.2701 15.4348 16.2701 17.3438C12.4401 19.7638 7.15014 18.6938 5.62014 14.7338C5.20032 13.4405 5.14497 12.0565 5.46014 10.7338C5.48164 10.6385 5.46558 10.5385 5.4153 10.4547C5.36502 10.3709 5.28438 10.3097 5.19014 10.2838C5.14286 10.2718 5.09368 10.2693 5.04543 10.2764C4.99718 10.2835 4.95081 10.3001 4.90899 10.3252C4.86717 10.3503 4.83073 10.3834 4.80175 10.4226C4.77277 10.4619 4.75183 10.5064 4.74014 10.5538C4.74014 10.7538 4.67014 10.9238 4.63014 11.1138C4.45109 11.033 4.26744 10.9629 4.08014 10.9038C3.97705 10.8938 3.87323 10.8938 3.77014 10.9038C3.66703 10.8943 3.56326 10.8943 3.46014 10.9038H3.39014C3.35008 10.6623 3.24262 10.4369 3.08014 10.2538C2.7604 9.94964 2.34904 9.75978 1.91014 9.71379C1.46986 9.67882 1.03209 9.80695 0.680143 10.0738C0.493317 10.1867 0.335263 10.3415 0.218432 10.5259C0.101601 10.7103 0.0291842 10.9193 0.00688644 11.1365C-0.0154113 11.3536 0.0130191 11.573 0.0899381 11.7773C0.166857 11.9816 0.290163 12.1653 0.450143 12.3138C0.475717 12.3488 0.508153 12.3783 0.545479 12.4005C0.582805 12.4226 0.624241 12.4369 0.667268 12.4425C0.710295 12.4481 0.754014 12.4449 0.795766 12.4331C0.837519 12.4213 0.876433 12.4011 0.910143 12.3738C0.967768 12.3111 0.999744 12.229 0.999744 12.1438C0.999744 12.0586 0.967768 11.9765 0.910143 11.9138C0.822715 11.7899 0.785458 11.6374 0.805866 11.4872C0.826274 11.3369 0.902834 11.1999 1.02014 11.1038C1.18015 11.0009 1.3716 10.9583 1.56014 10.9838C1.68512 10.9657 1.81261 10.9771 1.93241 11.017C2.05221 11.0569 2.16102 11.1243 2.25014 11.2138C2.46014 11.3638 2.34014 11.7038 2.17014 11.9438C2.00014 12.1838 1.86014 12.3138 1.63014 12.2838C1.58281 12.272 1.53358 12.27 1.48544 12.2779C1.4373 12.2857 1.39126 12.3033 1.35012 12.3295C1.30897 12.3556 1.27357 12.3899 1.24607 12.4302C1.21857 12.4705 1.19954 12.5159 1.19014 12.5638C1.16926 12.6592 1.18698 12.7591 1.23944 12.8415C1.2919 12.9239 1.37483 12.9823 1.47014 13.0038C1.7849 13.0745 2.11397 13.0439 2.4103 12.9164C2.70664 12.7889 2.95509 12.571 3.12014 12.2938C3.17214 12.1938 3.21548 12.0905 3.25014 11.9838L3.44014 12.0538C3.54681 12.0638 3.65348 12.0638 3.76014 12.0538C3.86348 12.0638 3.96681 12.0638 4.07014 12.0538C4.21214 12.0405 4.35214 12.0171 4.49014 11.9838C4.37403 12.9959 4.48681 14.0211 4.82014 14.9838C5.28139 16.1494 6.02746 17.1809 6.99014 17.9838C6.99014 17.9838 6.90014 18.0638 6.86014 18.1138C6.78415 18.2015 6.72024 18.2991 6.67014 18.4038C6.61354 18.5107 6.56345 18.6209 6.52014 18.7338C6.52014 18.8638 6.45014 19.0038 6.41014 19.1338L6.19014 19.0738C5.75825 19.058 5.33421 19.1923 4.99014 19.4538C4.80316 19.5678 4.6451 19.7236 4.5283 19.9088C4.4115 20.0941 4.33913 20.3038 4.31686 20.5217C4.29459 20.7396 4.32301 20.9597 4.39991 21.1647C4.47681 21.3698 4.6001 21.5543 4.76014 21.7038C4.8135 21.7723 4.89171 21.817 4.97782 21.8283C5.06393 21.8395 5.151 21.8163 5.22014 21.7638C5.28653 21.709 5.32964 21.631 5.34078 21.5456C5.35192 21.4602 5.33025 21.3738 5.28014 21.3038C5.18861 21.1803 5.14795 21.0264 5.16656 20.8738C5.18516 20.7213 5.26162 20.5816 5.38014 20.4838C5.52669 20.3886 5.69563 20.3334 5.87014 20.3238C5.99497 20.3094 6.12144 20.3225 6.24065 20.3623C6.35986 20.402 6.46892 20.4674 6.56014 20.5538C6.77014 20.7138 6.65014 21.0538 6.48014 21.2938C6.42856 21.3934 6.35131 21.4774 6.25638 21.5372C6.16144 21.597 6.05227 21.6303 5.94014 21.6338C5.89281 21.622 5.84358 21.62 5.79544 21.6279C5.7473 21.6357 5.70126 21.6533 5.66012 21.6795C5.61897 21.7056 5.58357 21.7399 5.55607 21.7802C5.52857 21.8205 5.50954 21.8659 5.50014 21.9138C5.47926 22.0092 5.49698 22.1091 5.54944 22.1915C5.6019 22.2739 5.68483 22.3323 5.78014 22.3538C6.09594 22.422 6.42519 22.3892 6.72131 22.26C7.01742 22.1308 7.2654 21.9117 7.43014 21.6338C7.66084 21.3516 7.78687 20.9983 7.78687 20.6338C7.78687 20.2693 7.66084 19.916 7.43014 19.6338H7.37014L7.62014 19.3738C7.70481 19.2838 7.77481 19.1838 7.83014 19.0738C7.89548 18.9691 7.94881 18.8591 7.99014 18.7438C8.60014 19.1438 9.27814 19.4318 9.99014 19.5938C10.5062 19.7028 11.0328 19.7531 11.5601 19.7438C11.6091 19.7585 11.6612 19.7585 11.7101 19.7438H12.4801C13.8572 19.6601 15.2021 19.2924 16.4301 18.6638C16.4247 18.7237 16.4247 18.7839 16.4301 18.8438C16.4357 18.9267 16.4561 19.008 16.4901 19.0838C16.5152 19.1624 16.5524 19.2366 16.6001 19.3038C16.6501 19.3638 16.7101 19.4038 16.7601 19.4538C16.4348 19.6585 16.1855 19.964 16.0501 20.3238C15.9578 20.5185 15.911 20.7316 15.9132 20.947C15.9155 21.1625 15.9667 21.3746 16.0631 21.5673C16.1594 21.76 16.2984 21.9283 16.4694 22.0594C16.6404 22.1904 16.839 22.2808 17.0501 22.3238C17.1337 22.3495 17.224 22.342 17.3022 22.3029C17.3804 22.2638 17.4406 22.1961 17.4701 22.1138C17.4955 22.0316 17.4877 21.9427 17.4485 21.8661C17.4093 21.7895 17.3417 21.7313 17.2601 21.7038C17.1186 21.6476 17.0032 21.5406 16.9366 21.4036C16.87 21.2667 16.857 21.1098 16.9001 20.9638C16.9607 20.7967 17.0728 20.6532 17.2201 20.5538C17.3173 20.4753 17.4296 20.4179 17.5502 20.3852C17.6707 20.3524 17.7967 20.3452 17.9201 20.3638C18.1901 20.3638 18.2701 20.7338 18.2601 21.0238C18.2711 21.1347 18.2528 21.2466 18.2072 21.3483C18.1616 21.4501 18.0902 21.5381 18.0001 21.6038C17.9084 21.6397 17.8342 21.7098 17.7932 21.7993C17.7521 21.8889 17.7475 21.9909 17.7801 22.0838C17.7978 22.1291 17.8243 22.1705 17.858 22.2057C17.8917 22.2408 17.932 22.2689 17.9766 22.2884C18.0212 22.3079 18.0692 22.3184 18.1178 22.3193C18.1665 22.3203 18.2148 22.3116 18.2601 22.2938C18.5641 22.1787 18.8242 21.971 19.0036 21.7C19.1831 21.4291 19.2728 21.1085 19.2601 20.7838C19.2857 20.4226 19.1864 20.0636 18.9788 19.7669C18.7713 19.4702 18.4682 19.2537 18.1201 19.1538C17.9695 19.1338 17.8195 19.1338 17.6701 19.1538V18.8738C17.6595 18.7862 17.6323 18.7013 17.5901 18.6238C17.5607 18.5431 17.5166 18.4685 17.4601 18.4038C17.4015 18.3205 17.3344 18.2435 17.2601 18.1738C18.0509 17.6287 18.7148 16.9196 19.2066 16.0947C19.6985 15.2698 20.0066 14.3486 20.1101 13.3938C20.1601 12.9251 20.1768 12.4551 20.1601 11.9838C20.1601 11.7938 20.1101 11.6038 20.0801 11.4138C20.1668 11.4238 20.2535 11.4238 20.3401 11.4138C20.4361 11.4238 20.5328 11.4238 20.6301 11.4138L20.8001 11.3638C20.84 11.5476 20.9179 11.721 21.0287 11.8729C21.1394 12.0248 21.2808 12.1519 21.4435 12.2461C21.6063 12.3402 21.787 12.3993 21.9739 12.4196C22.1609 12.4399 22.35 12.4209 22.5291 12.3638C22.5928 12.3547 22.6521 12.3266 22.6996 12.2833C22.747 12.2399 22.7803 12.1833 22.7951 12.1208C22.8055 12.0792 22.8069 12.0359 22.7991 11.9938C22.7867 11.9098 22.7424 11.8337 22.6753 11.7816C22.6082 11.7294 22.5237 11.7052 22.4391 11.7138C22.2864 11.7288 22.1336 11.6856 22.0113 11.5929C21.889 11.5002 21.8061 11.3649 21.7791 11.2138C21.7622 11.0397 21.8007 10.8647 21.8891 10.7138C21.9378 10.5975 22.0113 10.4934 22.1046 10.4087C22.198 10.3241 22.3087 10.2609 22.4291 10.2238C22.6691 10.1238 22.9091 10.4038 23.0291 10.6638C23.0853 10.7611 23.1149 10.8714 23.1149 10.9838C23.1149 11.0961 23.0853 11.2065 23.0291 11.3038C22.9607 11.373 22.9224 11.4665 22.9224 11.5638C22.9224 11.6611 22.9607 11.7545 23.0291 11.8238C23.1001 11.8928 23.1952 11.9314 23.2941 11.9314C23.3931 11.9314 23.4882 11.8928 23.5591 11.8238C23.7937 11.5849 23.9441 11.276 23.9874 10.944C24.0307 10.612 23.9646 10.2759 23.7991 9.98479Z" fill="white"/>
<path fill-rule="evenodd" clip-rule="evenodd" d="M8.52993 9.03524C8.52993 9.21524 8.41993 9.39524 8.38993 9.57524C8.25993 10.3499 8.18327 11.1299 8.15993 11.9152L6.28993 11.9852C5.44993 11.9852 5.28993 12.5552 6.28993 12.7752L8.17993 12.9452C8.20127 13.6959 8.28793 14.4392 8.43993 15.1752C8.14993 15.2619 7.8666 15.3686 7.58993 15.4952C6.70993 16.0652 7.29993 16.5752 7.76993 16.3952C8.23993 16.2152 8.40993 16.2252 8.76993 16.1552C8.90793 16.6126 9.0946 17.0492 9.32993 17.4652C9.44993 17.9952 10.3299 18.3852 10.5699 17.7652C10.242 17.2053 9.98346 16.6076 9.79993 15.9852H10.0999C10.6899 15.9052 11.2899 15.8452 11.8799 15.8152C12.4699 15.7852 12.7799 15.8152 13.2299 15.8152C13.1859 16.4659 13.1059 17.1126 12.9899 17.7552C12.9899 18.3152 13.8899 17.9752 13.9899 17.2952C14.1266 16.7746 14.2366 16.2479 14.3199 15.7152C15.0746 15.7486 15.8246 15.8219 16.5699 15.9352C17.3399 16.0952 17.7599 15.5652 17.2199 15.2052C16.3199 14.9519 15.4066 14.7619 14.4799 14.6352C14.4847 14.5954 14.4847 14.5551 14.4799 14.5152C14.5046 14.0219 14.5046 13.5286 14.4799 13.0352C15.6154 12.95 16.7443 12.793 17.8599 12.5652C18.9299 12.4452 18.6199 11.7852 17.8599 11.7052C16.8599 11.8152 15.8599 11.8852 14.9299 11.9052H14.4499C14.4499 11.4452 14.3999 10.9952 14.3299 10.5452C14.2599 10.0952 14.1499 9.54524 14.0499 9.11524C14.8144 9.05676 15.5733 8.93975 16.3199 8.76524C16.3689 8.75687 16.4157 8.73872 16.4576 8.71187C16.4994 8.68502 16.5354 8.65001 16.5634 8.60895C16.5914 8.56788 16.6108 8.52159 16.6205 8.47285C16.6302 8.4241 16.63 8.3739 16.6199 8.32524C16.6176 8.27514 16.6049 8.22608 16.5826 8.1812C16.5602 8.13631 16.5287 8.09659 16.4901 8.06458C16.4515 8.03257 16.4066 8.00898 16.3584 7.99532C16.3102 7.98165 16.2596 7.97822 16.2099 7.98524C15.4793 8.07657 14.7459 8.11324 14.0099 8.09524H13.8699C13.6899 7.37524 13.4999 6.68524 13.2999 6.01524C13.2905 5.97361 13.2729 5.93429 13.2481 5.89957C13.2233 5.86486 13.1918 5.83546 13.1555 5.81309C13.1191 5.79073 13.0787 5.77586 13.0365 5.76936C12.9944 5.76286 12.9513 5.76486 12.9099 5.77524C12.8254 5.79438 12.7518 5.84602 12.705 5.919C12.6582 5.99197 12.642 6.08042 12.6599 6.16524C12.7699 6.76524 12.8499 7.40524 12.9199 8.04524H12.3499L10.6599 7.98524H9.65993V7.68524C9.78203 7.26016 9.95318 6.85074 10.1699 6.46524C10.2143 6.38326 10.2262 6.28754 10.203 6.19722C10.1799 6.1069 10.1235 6.02864 10.0452 5.97809C9.96684 5.92755 9.8723 5.90844 9.78048 5.9246C9.68866 5.94076 9.60632 5.99098 9.54993 6.06524C9.31091 6.49871 9.12299 6.95845 8.98993 7.43524C8.91993 7.62524 8.89993 7.81524 8.83993 8.01524H7.91993L7.62993 7.98524C6.72993 7.86524 6.32993 8.45524 7.05993 8.77524L7.77993 8.98524C7.98993 8.98524 8.27993 8.98524 8.52993 9.03524ZM13.3099 13.8152V14.4952H11.8499C11.2006 14.5252 10.5573 14.6052 9.91993 14.7352L9.60993 14.8352C9.49993 14.2226 9.4266 13.6059 9.38993 12.9852L10.0699 13.0352C11.1399 13.0906 12.2099 13.0906 13.2799 13.0352C13.2799 13.3452 13.3099 13.5852 13.3099 13.8152ZM9.42993 9.72524C9.42993 9.53524 9.49993 9.34524 9.51993 9.14524L10.6199 9.23524H13.0399C13.0399 9.76524 13.1399 10.2352 13.1799 10.8152V11.9152H9.36993C9.34327 11.1846 9.36327 10.4546 9.42993 9.72524Z" fill="white"/>
</g>
<defs>
<clipPath id="clip0_650_264">
<rect width="24" height="24" fill="white"/>
</clipPath>
</defs>
</svg>
