<svg width="24" height="24" viewBox="0 0 24 24" fill="none" xmlns="http://www.w3.org/2000/svg">
<g clip-path="url(#clip0_624_33)">
<path fill-rule="evenodd" clip-rule="evenodd" d="M2.30736 12.4692C3.30732 13.2292 4.0173 12.5192 3.24733 11.6792L3.16733 11.5992C3.00245 11.4432 2.82884 11.2966 2.64735 11.1603C2.45735 11.0203 2.25736 10.9003 2.05736 10.7803C1.57384 10.5085 1.06515 10.2841 0.538413 10.1103C0.449568 10.0666 0.346979 10.0599 0.253214 10.0918C0.159449 10.1236 0.0821884 10.1915 0.0384291 10.2803C-0.00533022 10.3692 -0.0120039 10.4717 0.0198763 10.5655C0.0517565 10.6593 0.119579 10.7365 0.208424 10.7803C0.63841 11.0703 0.998398 11.4403 1.40839 11.7802C1.67171 12.0136 1.94837 12.2302 2.23836 12.4302L2.30736 12.4692ZM11.994 17.9179C11.9609 17.8251 11.8922 17.7492 11.8031 17.707C11.7141 17.6648 11.6119 17.6598 11.5191 17.6929C11.4262 17.7261 11.3504 17.7947 11.3082 17.8838C11.266 17.9729 11.2609 18.0751 11.2941 18.1679C11.3494 18.4595 11.2868 18.7611 11.1199 19.0065C10.9531 19.2519 10.6956 19.4211 10.4041 19.4768C10.2277 19.4816 10.0528 19.4439 9.89411 19.3668C9.7233 19.3012 9.56703 19.2026 9.43413 19.0768C9.34621 18.9842 9.26279 18.8875 9.18413 18.7869C9.13892 18.7159 9.10517 18.6383 9.08414 18.5569C9.04354 18.3666 9.07189 18.1682 9.16413 17.9969C9.23413 17.9269 9.28413 17.8569 9.34413 17.7869C9.42765 17.671 9.53294 17.5725 9.65412 17.4969C9.87401 17.3528 10.1312 17.2761 10.3941 17.2761C10.657 17.2761 10.9142 17.3528 11.1341 17.4969C11.1978 17.5496 11.2791 17.5764 11.3616 17.572C11.4442 17.5676 11.5222 17.5324 11.58 17.4733C11.6378 17.4142 11.6714 17.3355 11.674 17.2529C11.6766 17.1702 11.6481 17.0896 11.5941 17.027C11.3483 16.7751 11.0405 16.5926 10.7016 16.4978C10.3627 16.403 10.0049 16.3993 9.66412 16.487C9.66189 16.3315 9.63834 16.1771 9.59412 16.028C9.56847 15.9585 9.52308 15.8981 9.46352 15.8541C9.40397 15.8101 9.33286 15.7844 9.25892 15.7803C9.18499 15.7761 9.11145 15.7937 9.04736 15.8308C8.98326 15.8678 8.9314 15.9228 8.89814 15.989C8.87668 16.0338 8.86446 16.0825 8.86223 16.1322C8.86 16.1818 8.86779 16.2314 8.88514 16.278C8.94014 16.447 8.94014 16.629 8.88514 16.798C8.57718 16.9746 8.32178 17.23 8.14517 17.5379C8.10527 17.5419 8.06507 17.5419 8.02517 17.5379C7.85179 17.5453 7.67948 17.5074 7.52519 17.4279C7.33287 17.3829 7.15225 17.2977 6.9952 17.1779C6.90627 17.089 6.82592 16.992 6.75521 16.888C6.70249 16.8201 6.66498 16.7416 6.64522 16.658C6.61296 16.4472 6.64893 16.2316 6.74787 16.0427C6.84682 15.8538 7.00355 15.7015 7.1952 15.608C7.41414 15.4614 7.67169 15.3832 7.93517 15.3832C8.19866 15.3832 8.45621 15.4614 8.67515 15.608C8.73982 15.663 8.82306 15.6913 8.90785 15.6869C8.99264 15.6826 9.07258 15.6461 9.13132 15.5848C9.19006 15.5235 9.22317 15.4421 9.22388 15.3572C9.22459 15.2723 9.19285 15.1903 9.13514 15.1281C8.93238 14.913 8.682 14.7485 8.40414 14.6478C8.12627 14.5471 7.82865 14.5129 7.53519 14.5481C7.57086 14.2689 7.52936 13.9853 7.41519 13.7281C7.37907 13.6393 7.31006 13.5679 7.22255 13.5287C7.13504 13.4896 7.03579 13.4857 6.9455 13.518C6.85522 13.5502 6.78087 13.6161 6.73796 13.7018C6.69505 13.7875 6.68691 13.8865 6.71521 13.9781C6.7497 14.1249 6.75052 14.2777 6.71762 14.4249C6.68471 14.5721 6.61894 14.7099 6.52522 14.8281C6.33113 14.9321 6.15299 15.0634 5.99624 15.2181C5.93864 15.2471 5.87836 15.2706 5.81624 15.288C5.64361 15.2878 5.47307 15.2503 5.31626 15.1781C5.14545 15.1124 4.98918 15.0139 4.85627 14.8881C4.76503 14.7985 4.68141 14.7015 4.60628 14.5981C4.55458 14.527 4.52033 14.4448 4.50629 14.3581C4.4651 14.1443 4.49941 13.9228 4.60337 13.7315C4.70732 13.5402 4.87447 13.3909 5.07627 13.3092C5.29616 13.165 5.55334 13.0883 5.81624 13.0883C6.07915 13.0883 6.33633 13.165 6.55622 13.3092C6.62082 13.347 6.69639 13.3618 6.77052 13.3511C6.84464 13.3404 6.91291 13.3047 6.96409 13.25C7.01528 13.1954 7.04634 13.1249 7.05218 13.0502C7.05801 12.9756 7.03828 12.9011 6.9962 12.8392C6.68037 12.5576 6.29354 12.3678 5.87758 12.2902C5.46162 12.2127 5.03237 12.2504 4.63628 12.3992C4.21907 12.5342 3.86422 12.8145 3.63631 13.1892C3.34876 13.5921 3.22085 14.0873 3.27732 14.5791C3.31232 14.7891 3.38332 14.9921 3.48732 15.1791C3.62998 15.401 3.79664 15.6044 3.9873 15.789C4.27729 16.039 4.62428 16.217 4.99727 16.308C5.14993 16.3547 5.30659 16.3813 5.46725 16.388C5.44717 16.5507 5.44717 16.7153 5.46725 16.878C5.50321 17.0866 5.57782 17.2867 5.68725 17.4679C5.82258 17.6986 5.9889 17.9052 6.18623 18.0879C6.66789 18.4965 7.28497 18.7102 7.91618 18.6869C7.92156 18.7133 7.92156 18.7405 7.91618 18.7669C7.94917 18.9789 8.02417 19.1828 8.13617 19.3668C8.27116 19.5928 8.43916 19.7988 8.63515 19.9768C8.92114 20.2278 9.26413 20.4068 9.63512 20.4968C10.0009 20.6005 10.3883 20.6005 10.7541 20.4968C11.022 20.4141 11.2706 20.2786 11.4853 20.0982C11.6999 19.9179 11.8763 19.6964 12.004 19.4468C12.1142 19.2066 12.1704 18.9451 12.1687 18.6808C12.1669 18.4164 12.1073 18.1557 11.994 17.9169M10.7941 6.66251C10.9301 6.68917 11.0634 6.72584 11.1941 6.7725C11.884 7.05249 12.264 6.32252 11.7641 6.00254C11.5147 5.85446 11.2453 5.74331 10.9641 5.67256C10.3396 5.53822 9.69589 5.5179 9.06414 5.61256C8.50659 5.64986 7.94661 5.62302 7.39519 5.53257L5.34626 4.76261C4.87227 4.56395 4.38229 4.41396 3.87631 4.31263C3.83369 4.31632 3.79229 4.32879 3.75473 4.34926C3.71716 4.36973 3.68424 4.39776 3.65803 4.43157C3.63183 4.46538 3.6129 4.50426 3.60246 4.54574C3.59201 4.58722 3.59025 4.63042 3.59731 4.67261C3.60404 4.74725 3.63675 4.81717 3.68975 4.87017C3.74274 4.92316 3.81266 4.95587 3.88731 4.9626C3.88731 4.9626 4.0073 5.02259 4.1173 5.08259C4.73728 5.40257 6.04624 6.22253 6.93621 6.6725C7.30119 6.88149 7.70618 7.01049 8.12617 7.05248L9.25513 6.8225C9.75753 6.69417 10.276 6.64027 10.7941 6.66251ZM23.9087 4.18364C23.8568 4.09765 23.7729 4.03571 23.6755 4.01135C23.5781 3.98699 23.4749 4.00219 23.3887 4.05364L21.6087 5.05359C21.2905 5.23718 20.9561 5.39115 20.6098 5.51357C20.4063 5.57877 20.1933 5.60919 19.9798 5.60356C19.6451 5.59784 19.3111 5.57112 18.9798 5.52357C18.686 5.47216 18.3957 5.40202 18.1108 5.31358C17.6909 5.17358 17.2909 4.99359 16.8709 4.8736C16.547 4.77602 16.2101 4.7288 15.8719 4.73361C15.6006 4.74561 15.3373 4.79894 15.0819 4.8936C14.729 5.01059 14.392 5.17558 14.082 5.38357C13.832 5.53357 11.5341 7.66145 11.3141 7.89144C10.9278 8.25539 10.5916 8.66898 10.3141 9.12137C10.1221 9.46136 10.0121 9.84134 9.99411 10.2313C9.97183 10.4592 10.0017 10.6891 10.0814 10.9038C10.161 11.1184 10.2885 11.3121 10.4541 11.4702C10.6893 11.6562 10.9633 11.7869 11.2558 11.8527C11.5483 11.9185 11.8519 11.9176 12.144 11.8502C12.66 11.7462 13.144 11.5202 13.553 11.1903C13.9623 10.8649 14.3423 10.5083 14.693 10.1203C15.2019 10.3344 15.7416 10.466 16.2919 10.5103C16.5519 10.5403 16.8119 10.5403 17.0719 10.5103C17.3285 10.473 17.5785 10.4063 17.8219 10.3103C18.3731 10.078 18.8725 9.73801 19.2908 9.31036C19.3274 9.28635 19.3587 9.25509 19.3827 9.21851C19.4067 9.18193 19.423 9.14082 19.4304 9.09771C19.4379 9.05459 19.4365 9.0104 19.4263 8.96787C19.416 8.92533 19.3971 8.88534 19.3708 8.85039C19.3459 8.81492 19.3142 8.78471 19.2776 8.76149C19.2409 8.73827 19.2001 8.72249 19.1574 8.71507C19.1147 8.70764 19.0709 8.7087 19.0286 8.71819C18.9863 8.72769 18.9463 8.74542 18.9108 8.77039C18.4512 8.96638 17.9666 9.09763 17.4709 9.16037L16.6009 9.31036C16.4009 9.31036 16.2209 9.38036 16.0209 9.39036C15.7084 9.41489 15.3945 9.41489 15.0819 9.39036C15.0922 9.35442 15.0922 9.31631 15.0819 9.28037C15.0521 9.24952 15.0164 9.22499 14.9769 9.20824C14.9373 9.19149 14.8949 9.18286 14.852 9.18286C14.809 9.18286 14.7666 9.19149 14.727 9.20824C14.6875 9.22499 14.6518 9.24952 14.622 9.28037C14.1486 9.75034 13.6423 10.1803 13.103 10.5703C12.7809 10.7929 12.411 10.9368 12.023 10.9903C11.7547 11.0333 11.4797 10.9839 11.2431 10.8503C11.1492 10.7988 11.0744 10.7185 11.0296 10.6213C10.9848 10.5241 10.9723 10.4151 10.9941 10.3103C11.0361 10.0823 11.1241 9.86434 11.2541 9.67035C11.5041 9.32103 11.7907 9.00438 12.114 8.7204C12.604 8.23142 13.114 7.72145 13.633 7.23248C13.9596 6.93044 14.3108 6.65617 14.683 6.41252C14.8763 6.28253 15.0796 6.1692 15.2929 6.07254C15.6865 5.8999 16.1276 5.86812 16.5419 5.98254C16.9519 6.07254 17.3419 6.22253 17.7519 6.34252C18.1098 6.43252 18.4728 6.49585 18.8408 6.53251C19.2008 6.55251 19.5608 6.55251 19.9208 6.53251C20.2408 6.52251 20.5578 6.46252 20.8598 6.35252C21.2567 6.18652 21.6382 5.98575 21.9997 5.75255L23.7287 4.66261C23.8148 4.62133 23.8817 4.54831 23.9153 4.45885C23.9488 4.36938 23.9464 4.2714 23.9087 4.18364Z" fill="black"/>
<path fill-rule="evenodd" clip-rule="evenodd" d="M18.5599 14.3086C18.4988 14.1338 18.4257 13.9634 18.3409 13.7987C18.0578 13.3139 17.7225 12.8616 17.341 12.4497L16.271 11.2298C16.2163 11.1683 16.1406 11.1295 16.0588 11.1209C15.977 11.1124 15.8949 11.1347 15.8286 11.1835C15.7624 11.2323 15.7168 11.3042 15.7008 11.3849C15.6848 11.4656 15.6995 11.5493 15.742 11.6198L16.532 13.0397C16.792 13.4557 17.0186 13.889 17.212 14.3396C17.333 14.5916 17.414 14.8616 17.452 15.1396C17.4836 15.3143 17.4777 15.4937 17.4346 15.666C17.3915 15.8382 17.3122 15.9993 17.202 16.1385C17.062 16.2985 16.882 16.4185 16.682 16.4885C16.6676 16.4509 16.6509 16.4141 16.632 16.3785C16.4211 16.0649 16.1871 15.7674 15.932 15.4886L14.4921 13.8587C14.4645 13.8179 14.4292 13.7831 14.3881 13.756C14.347 13.729 14.3011 13.7102 14.2528 13.701C14.1553 13.6822 14.0543 13.703 13.9721 13.7587C13.8899 13.8143 13.8331 13.9004 13.8144 13.9979C13.7956 14.0954 13.8164 14.1964 13.8721 14.2786L14.992 16.1885C15.1827 16.4552 15.3594 16.7318 15.522 17.0185C15.6087 17.1658 15.6754 17.3225 15.722 17.4885C15.7776 17.6029 15.794 17.7324 15.7687 17.8571C15.7434 17.9818 15.6778 18.0947 15.582 18.1784C15.4389 18.2964 15.2658 18.3722 15.082 18.3974V18.3074C14.976 18.0804 14.8452 17.8657 14.6921 17.6674C14.4521 17.3775 14.2221 17.0975 13.9621 16.8275C13.7021 16.5575 13.4631 16.2975 13.1931 16.0485C13.1383 15.9815 13.0594 15.9388 12.9733 15.9294C12.8873 15.9201 12.801 15.9449 12.7331 15.9985C12.6655 16.0551 12.6224 16.1357 12.6131 16.2234C12.6038 16.3111 12.6289 16.399 12.6831 16.4685C12.8431 16.7085 12.9831 16.9385 13.1231 17.1885C13.2631 17.4385 13.5131 17.9184 13.6931 18.2984L13.9731 18.9774L13.8331 19.2174C13.7656 19.3254 13.6766 19.4184 13.5717 19.4907C13.4668 19.5629 13.3481 19.6129 13.2231 19.6373C12.9815 19.7016 12.7247 19.6731 12.5031 19.5573C12.4618 19.5317 12.4158 19.5144 12.3677 19.5066C12.3197 19.4987 12.2706 19.5004 12.2232 19.5115C12.1759 19.5227 12.1312 19.5431 12.0917 19.5715C12.0522 19.6 12.0187 19.6359 11.9931 19.6773C11.9408 19.7624 11.924 19.8646 11.9465 19.9619C11.969 20.0592 12.0288 20.1438 12.1131 20.1973C12.4346 20.4759 12.8478 20.6256 13.2731 20.6173C13.6564 20.6276 14.0345 20.5275 14.3625 20.3289C14.6905 20.1304 14.9545 19.8417 15.123 19.4974C15.153 19.3987 15.173 19.2987 15.183 19.1974C15.5268 19.2212 15.8709 19.1557 16.182 19.0074C16.4763 18.8426 16.7122 18.5907 16.8573 18.2862C17.0024 17.9818 17.0494 17.6398 16.992 17.3075C17.3617 17.2381 17.7066 17.0726 17.9919 16.8275C18.2195 16.62 18.403 16.3688 18.5317 16.089C18.6604 15.8092 18.7315 15.5064 18.7409 15.1986C18.7177 14.8957 18.6572 14.5968 18.5609 14.3086M23.9888 13.0797C23.9771 13.0323 23.9561 12.9878 23.9272 12.9486C23.8982 12.9093 23.8617 12.8762 23.8199 12.8511C23.7781 12.826 23.7317 12.8095 23.6835 12.8023C23.6352 12.7952 23.586 12.7977 23.5388 12.8097C22.9288 12.8797 22.3388 12.8997 21.7488 12.9997C21.3479 13.0653 20.9534 13.1657 20.5699 13.2997C20.1291 13.4665 19.7096 13.6847 19.3199 13.9496C18.5009 14.2896 18.9899 14.9496 19.7599 14.7296L20.6899 14.5396L21.3898 14.3696L22.0798 14.1496C22.6298 13.9596 23.1698 13.7497 23.7188 13.5297C23.7661 13.518 23.8107 13.497 23.8499 13.4681C23.8891 13.4391 23.9222 13.4026 23.9473 13.3608C23.9724 13.319 23.989 13.2726 23.9961 13.2244C24.0032 13.1761 24.0007 13.127 23.9888 13.0797Z" fill="black"/>
</g>
<defs>
<clipPath id="clip0_624_33">
<rect width="24" height="24" fill="white"/>
</clipPath>
</defs>
</svg>
