<svg width="24" height="24" viewBox="0 0 24 24" fill="none" xmlns="http://www.w3.org/2000/svg">
<path fill-rule="evenodd" clip-rule="evenodd" d="M16.5971 19.3629C15.8938 19.6156 15.2092 19.9196 14.5488 20.2724C14.3792 20.3778 14.2097 20.5024 14.0411 20.626C14.0015 20.5831 13.9638 20.5383 13.9281 20.4919C13.4899 20.0533 13.0079 19.6624 12.49 19.3255C12.4591 19.2941 12.4222 19.2695 12.3815 19.2532C12.3409 19.2369 12.2974 19.2292 12.2537 19.2306C12.21 19.232 12.1671 19.2425 12.1276 19.2615C12.0881 19.2804 12.0528 19.3074 12.0238 19.3407C11.9949 19.3741 11.973 19.4131 11.9595 19.4554C11.946 19.4976 11.9411 19.5423 11.9452 19.5866C11.9492 19.6308 11.9621 19.6738 11.9831 19.7128C12.0041 19.7518 12.0327 19.786 12.0672 19.8133C12.4156 20.2628 12.6972 20.7698 13.0071 21.248L13.0918 21.3822L13.0071 21.4589C12.4833 21.9992 12.0025 22.5808 11.569 23.1984C11.5339 23.2324 11.506 23.2733 11.487 23.3186C11.4679 23.3639 11.4581 23.4126 11.4581 23.4619C11.4581 23.5112 11.4679 23.56 11.487 23.6053C11.506 23.6506 11.5339 23.6915 11.569 23.7255C11.6023 23.7597 11.6419 23.7868 11.6855 23.8053C11.7292 23.8239 11.776 23.8334 11.8233 23.8334C11.8706 23.8334 11.9174 23.8239 11.961 23.8053C12.0047 23.7868 12.0443 23.7597 12.0775 23.7255C12.378 23.438 12.6878 23.1792 13.0165 22.9214C13.3461 22.6626 13.5251 22.538 13.7784 22.3569L13.8631 22.4623C14.2389 22.931 14.6241 23.3709 14.9905 23.8299C15.0224 23.8807 15.066 23.9227 15.1175 23.9523C15.1691 23.9819 15.227 23.9983 15.2862 23.9999C15.3453 24.0015 15.404 23.9883 15.457 23.9615C15.5101 23.9347 15.5558 23.8952 15.5904 23.8462C15.631 23.7866 15.6537 23.7163 15.6557 23.6438C15.6577 23.5713 15.6389 23.4998 15.6017 23.438C15.3568 22.8926 15.1119 22.3377 14.8115 21.7924L14.7079 21.6391L14.9339 21.4771C15.5546 20.9797 16.146 20.4535 16.8137 19.9753C16.8515 19.956 16.8852 19.9293 16.9128 19.8967C16.9403 19.864 16.9613 19.8262 16.9744 19.7853C16.9876 19.7444 16.9926 19.7013 16.9893 19.6584C16.9859 19.6155 16.9743 19.5737 16.955 19.5354C16.923 19.47 16.8703 19.4174 16.8054 19.3861C16.7405 19.3548 16.6671 19.3466 16.5971 19.3629ZM22.9042 14.0458C22.9418 14.0262 22.9754 13.9994 23.0028 13.9667C23.0303 13.934 23.0511 13.8961 23.0642 13.8552C23.0773 13.8143 23.0823 13.7712 23.079 13.7284C23.0757 13.6855 23.0642 13.6437 23.045 13.6054C23.0258 13.567 22.9994 13.5329 22.9673 13.505C22.9352 13.4771 22.898 13.4558 22.8578 13.4425C22.8176 13.4292 22.7752 13.4241 22.7331 13.4275C22.691 13.4308 22.6499 13.4426 22.6122 13.4621C21.9059 13.7285 21.2231 14.0473 20.5639 14.4186C20.3861 14.5284 20.2136 14.6467 20.0468 14.7732C20.0144 14.7242 19.9765 14.6791 19.9338 14.639C19.4985 14.1912 19.0162 13.7934 18.4957 13.4525C18.4358 13.3919 18.3547 13.3579 18.2702 13.3579C18.1857 13.3579 18.1046 13.3919 18.0446 13.4525C18.0135 13.4818 17.9886 13.5174 17.9716 13.557C17.9546 13.5966 17.9458 13.6393 17.9458 13.6825C17.9458 13.7257 17.9546 13.7685 17.9716 13.808C17.9886 13.8476 18.0135 13.8832 18.0446 13.9125C18.4025 14.3706 18.6841 14.868 18.9845 15.3559L19.0787 15.49L18.9845 15.5667C18.4817 16.0979 18.0227 16.6704 17.6124 17.2784C17.5775 17.3124 17.5497 17.3532 17.5307 17.3984C17.5117 17.4437 17.502 17.4923 17.502 17.5415C17.502 17.5906 17.5117 17.6393 17.5307 17.6845C17.5497 17.7297 17.5775 17.7706 17.6124 17.8045C17.6812 17.8742 17.7743 17.9133 17.8713 17.9133C17.9684 17.9133 18.0615 17.8742 18.1303 17.8045C18.4298 17.517 18.7312 17.2592 19.0693 17.0014C19.4083 16.7427 19.5769 16.6181 19.8302 16.4264L19.915 16.5414C20.2917 17.011 20.6863 17.4988 21.0432 17.91C21.0954 17.9912 21.1765 18.0486 21.2695 18.0701C21.3624 18.0915 21.46 18.0753 21.5414 18.025C21.6212 17.9718 21.6783 17.8898 21.701 17.7955C21.7237 17.7013 21.7104 17.6017 21.6639 17.517C21.4096 16.9727 21.1647 16.4178 20.8643 15.8724C20.8643 15.8724 20.7984 15.7766 20.7701 15.7191L20.9867 15.5562C21.6074 15.0501 22.2082 14.524 22.9042 14.0458ZM18.007 12.9168C18.1376 12.8716 18.2501 12.784 18.3272 12.6676C18.4119 12.5631 18.5344 12.267 18.572 12.2191C18.6097 12.1711 18.7123 11.9124 18.7689 11.7495C18.8775 11.4364 18.9685 11.1179 19.042 10.7939L19.1729 10.5831C19.2671 10.2323 19.2671 9.86239 19.1729 9.51258C19.0599 8.89921 18.7773 8.13537 18.7208 7.84786C18.5522 7.21628 18.4308 6.56649 18.2707 5.93491C18.1671 5.5046 18.054 5.08386 17.9316 4.65355C17.6561 3.57458 17.3429 2.50594 16.9927 1.44966C16.9705 1.3651 16.9167 1.29272 16.8428 1.24796C16.7689 1.20319 16.6807 1.18959 16.5971 1.21006C16.522 1.23844 16.4566 1.28837 16.4088 1.35382C16.4121 1.31605 16.4081 1.27798 16.397 1.24179C16.3858 1.2056 16.3677 1.17202 16.3438 1.14297C16.3161 1.10404 16.2808 1.07141 16.2401 1.04717C16.1993 1.02293 16.1541 1.00761 16.1072 1.0022C16.0603 0.996785 16.0128 1.0014 15.9677 1.01574C15.9227 1.03007 15.8811 1.05383 15.8456 1.08547C15.2815 1.49758 14.7089 1.89914 14.1259 2.28154C13.3179 2.82686 12.4627 3.32426 11.6349 3.84084C11.0811 4.1849 10.5359 4.55771 9.98115 4.90177C9.37025 5.28768 8.78133 5.70554 8.21438 6.15534C8.11664 6.23491 8.03911 6.33721 7.9883 6.45362C7.9375 6.57003 7.91491 6.69715 7.92243 6.8243L7.41481 7.92453C7.33445 8.10343 7.27166 8.28839 7.22646 8.47943C7.19941 8.57681 7.19469 8.6792 7.21265 8.77873C7.23061 8.87826 7.27078 8.97226 7.33005 9.05351C7.55137 9.27585 7.81318 9.45124 8.10137 9.56912C8.65247 9.74314 9.21898 9.8619 9.7928 9.92372C9.84349 9.94296 9.8978 9.95026 9.95166 9.94506C10.0055 9.93986 10.0575 9.9223 10.1037 9.89371C10.15 9.86511 10.1892 9.82622 10.2186 9.77996C10.2479 9.7337 10.2665 9.68127 10.2731 9.62662C10.2997 9.53397 10.29 9.43445 10.2462 9.34888C10.2023 9.26331 10.1276 9.19833 10.0377 9.16756C9.75512 9.05255 9.38877 8.87141 9.01301 8.67974C8.38296 8.37401 8.51481 8.56473 8.6363 7.36004L9.06009 7.44629C9.41797 7.54213 9.77396 7.64755 10.1318 7.77214C10.4888 7.89578 11.0717 8.13537 11.5878 8.32609C11.5078 8.84159 11.3592 9.3436 11.1461 9.8183C10.8089 10.5705 10.4065 11.2905 9.94348 11.9699C9.46412 12.7548 8.90941 13.5292 8.33587 14.3131C7.78587 15.0818 7.19695 15.8184 6.5691 16.5232C5.74779 17.4735 4.79849 18.3008 3.74942 18.9805C3.67204 18.99 3.60101 19.0289 3.55042 19.0892C3.49983 19.1496 3.47338 19.2271 3.47631 19.3063C3.47623 19.3495 3.48485 19.3923 3.50163 19.432C3.51842 19.4716 3.54301 19.5074 3.57389 19.537C3.60478 19.5667 3.6413 19.5896 3.68121 19.6043C3.72111 19.619 3.76356 19.6252 3.80593 19.6226C4.6945 19.6452 5.58348 19.6003 6.4655 19.4884C7.07889 19.4285 7.68435 19.3029 8.27183 19.1137C9.07141 18.8248 9.82986 18.4294 10.5274 17.9378C11.2179 17.4404 11.8488 16.8624 12.4072 16.2155C13.9502 14.3271 15.1298 12.1598 15.8842 9.82693L17.764 10.6588L18.0748 10.7738C16.8806 12.1606 17.9523 11.9306 16.7676 11.5482C16.725 11.5249 16.6783 11.5103 16.6302 11.5054C16.5821 11.5005 16.5335 11.5053 16.4872 11.5196C16.4409 11.5338 16.3978 11.5572 16.3605 11.5884C16.3231 11.6197 16.2921 11.6581 16.2694 11.7015C16.2284 11.7885 16.2211 11.8881 16.2491 11.9802C16.277 12.0724 16.3381 12.1505 16.4201 12.1989C16.7126 12.4583 17.0259 12.6877 17.36 12.8871C17.5658 12.9744 17.7954 12.9846 18.0079 12.9158M15.4143 8.82349C15.3699 8.80516 15.3224 8.79607 15.2746 8.79674C15.2267 8.79741 15.1795 8.80784 15.1357 8.82741C15.0919 8.84697 15.0524 8.87529 15.0195 8.91066C14.9866 8.94604 14.9611 8.98777 14.9443 9.03338C14.9111 9.12605 14.9152 9.22832 14.9558 9.31791C14.9964 9.40749 15.0701 9.47712 15.1609 9.51162C14.4058 11.2923 13.4191 12.9617 12.2273 14.4751C11.5091 15.3891 10.6818 16.2084 9.76454 16.9142C9.16181 17.3829 8.5101 17.7806 7.81978 18.0997C7.32064 18.3297 6.8036 18.5054 6.26867 18.6268C5.96731 18.7026 5.66688 18.7121 5.32878 18.7601C6.29128 18.1538 7.18072 17.4349 7.97894 16.6181C8.67218 15.8915 9.30121 15.1041 9.85872 14.2652C10.2222 13.7113 10.5575 13.1404 10.8645 12.5526C11.2893 11.7859 11.6481 10.9827 11.9363 10.1518C12.1363 9.58162 12.2595 8.98649 12.3026 8.38264C12.3055 8.31676 12.2903 8.25137 12.2587 8.19381C12.2271 8.13625 12.1803 8.0888 12.1237 8.05678C12.1265 8.01379 12.1195 7.97071 12.1031 7.93096C12.0868 7.89121 12.0616 7.85587 12.0295 7.82773C11.5236 7.54506 11.0098 7.27724 10.4888 7.0246C10.1839 6.86809 9.87004 6.73047 9.54888 6.61249C10.0282 6.32594 10.582 6.03938 10.6856 5.97229C11.6255 5.31292 12.6501 4.65259 13.59 3.94434C14.5407 3.23134 15.4596 2.47538 16.3438 1.67871C16.3894 1.63056 16.4219 1.57108 16.438 1.5062C16.429 1.54723 16.429 1.58976 16.438 1.63079C16.7487 3.15175 16.9173 4.6823 17.1707 6.21189C17.2837 6.87318 17.4344 7.52296 17.585 8.17275L18.007 9.62662L15.4143 8.82349ZM3.14857 6.14576C5.02836 6.71025 5.96825 5.7049 5.96825 4.2999C5.99781 3.8266 5.85356 3.35899 5.56346 2.98781C5.27337 2.61663 4.85813 2.36834 4.39831 2.29112C3.94681 2.31494 3.50722 2.44687 3.11529 2.67619C2.72335 2.90551 2.39014 3.22573 2.14276 3.61082C1.95664 3.89796 1.8646 4.23768 1.87983 4.5813C1.89506 4.92493 2.01676 5.25484 2.22752 5.52376C2.46767 5.81799 2.78787 6.03459 3.14857 6.14576ZM3.29926 4.06989C3.58461 3.75362 3.97733 3.55907 4.39831 3.52457C4.79385 3.52457 4.98127 3.94626 5.01894 4.34782C5.16962 5.67711 4.17228 5.64836 3.57143 5.42793C3.33665 5.35145 3.13418 5.19642 2.99695 4.98803C2.81895 4.64396 3.04498 4.32866 3.29926 4.06989ZM5.11217 11.4821C5.1425 11.0134 5.00232 10.5497 4.71836 10.1795C4.43439 9.80919 4.02649 9.55817 3.57237 9.47424C3.11117 9.48395 2.65932 9.60842 2.25629 9.8368C1.85326 10.0652 1.51131 10.3905 1.26031 10.7844C1.07551 11.0725 0.985088 11.4128 1.00201 11.7564C1.01892 12.1 1.14231 12.4294 1.35449 12.6973C1.60312 12.9829 1.93086 13.1861 2.29344 13.281C4.16381 13.8924 5.09334 12.888 5.11217 11.4821ZM2.1437 12.1711C1.93651 11.8261 2.1437 11.5108 2.41681 11.2147C2.70217 10.8984 3.09489 10.7 3.51586 10.6598C3.91047 10.6598 4.09882 11.0815 4.13555 11.4916C4.33333 13.2522 2.50063 12.7931 2.1437 12.1711Z" fill="black"/>
</svg>
