<svg width="1026" height="2095" viewBox="0 0 1026 2095" fill="none" xmlns="http://www.w3.org/2000/svg">
<path d="M792.857 2010.85C804.275 2021.47 816.224 2031.83 828.172 2041.65C798.168 2056.26 767.102 2067.41 734.442 2076.17C709.483 2082.81 681.868 2087.85 652.395 2090.77C628.763 2093.16 603.538 2094.49 576.986 2094.49C538.484 2094.49 502.108 2091.3 467.589 2084.93C440.24 2078.56 414.75 2068.74 390.587 2056.26C280.926 1999.43 206.047 1884.73 206.047 1753.03L206.047 956.451L0 956.451L0 686.412L254.373 686.943C275.88 620.297 314.116 528.159 383.949 433.101C481.397 300.073 594.51 223.868 665.14 184.039C622.656 233.692 556.275 325.564 519.633 457.264C494.142 549.401 492.018 630.121 495.47 686.412H828.438C785.688 721.727 745.859 761.025 710.545 803.509C671.247 850.507 636.994 902.019 608.318 956.451C544.061 1078.33 507.949 1217.2 507.949 1364.3C507.949 1526.8 552.026 1678.68 629.029 1809.05C663.812 1867.73 704.969 1922.17 752.232 1971.29C765.243 1985.09 778.785 1998.37 792.592 2011.12V2010.59L792.857 2010.85Z" fill="white"/>
<path d="M791.804 2012.71C803.222 2023.34 815.17 2033.69 827.119 2043.52C820.746 2046.7 813.843 2049.62 807.47 2052.28C448.215 1850.48 205.259 1465.73 205.259 1024.16C205.259 907.334 222.253 795.017 253.85 688.541C275.358 621.629 313.594 529.757 383.427 434.699C480.874 301.671 593.988 225.465 664.618 185.637C622.134 235.29 555.752 327.162 519.11 458.862C493.62 550.999 491.495 631.719 494.947 688.01L827.915 688.01C785.166 723.325 745.337 762.622 710.022 805.106C670.725 852.104 636.472 903.616 607.795 958.049C543.538 1079.92 507.427 1218.79 507.427 1365.9C507.427 1528.4 551.504 1680.28 628.506 1810.65C663.29 1869.33 704.446 1923.76 751.71 1972.89C764.72 1986.69 778.262 1999.97 792.07 2012.71H791.804Z" fill="white"/>
<path opacity="0.44" d="M828.968 685.881C786.219 721.196 746.39 760.493 711.075 802.977C671.777 849.975 637.525 901.487 608.848 955.92C601.413 970.524 593.979 984.862 587.34 999.997C535.563 906.001 503.966 798.994 498.124 685.615L828.968 685.615V685.881Z" fill="white"/>
<path d="M1026 122.175C1020.16 284.41 784.904 284.676 779.593 122.175C784.638 -40.8576 1020.69 -40.5921 1026 122.175ZM963.602 122.175C960.947 39.5964 841.195 39.8619 838.274 122.175C840.133 205.018 962.274 205.284 963.602 122.175Z" fill="white"/>
<path d="M805.596 658.267L525.998 658.267L525.201 627.998C522.281 539.843 541.133 451.955 579.369 373.625C638.581 253.076 728.328 182.447 793.382 144.742L824.713 198.909C777.716 226.258 690.358 288.922 635.394 401.239C600.079 473.462 588.927 543.03 587.6 595.869L805.33 595.869V658.533L805.596 658.267Z" fill="white"/>
</svg>
